<svg version="1.1" id="Layer_1" xmlns="http://www.w3.org/2000/svg" xmlns:xlink="http://www.w3.org/1999/xlink" x="0px" y="0px"
	 width="100%" viewBox="0 0 550 204" enable-background="new 0 0 550 204" xml:space="preserve">
<path fill="#FAFAFA" opacity="1.000000" stroke="none" 
	d="
M427.000000,205.000000 
	C284.666656,205.000000 142.833328,205.000000 1.000000,205.000000 
	C1.000000,137.000000 1.000000,69.000000 1.000000,1.000000 
	C184.333328,1.000000 367.666656,1.000000 551.000000,1.000000 
	C551.000000,69.000000 551.000000,137.000000 551.000000,205.000000 
	C509.833344,205.000000 468.666656,205.000000 427.000000,205.000000 
M483.623230,130.492371 
	C482.749847,130.655029 481.876465,130.817688 480.067505,130.985107 
	C474.708374,130.995468 469.349243,131.005829 463.054108,131.001770 
	C449.701843,131.002686 436.349548,131.003601 422.060883,130.978241 
	C414.374329,130.983643 406.687775,130.989044 398.065277,130.934021 
	C390.045135,130.952179 382.025024,130.970352 373.073669,130.922150 
	C368.382446,130.953262 363.691223,130.984375 358.098999,130.885086 
	C355.066162,130.922104 352.033295,130.959122 348.072052,130.883499 
	C343.048309,130.920471 338.024597,130.957443 332.081635,130.864227 
	C328.054443,130.909042 324.027222,130.953842 319.071594,130.856171 
	C311.382538,130.896362 303.693481,130.936569 295.075806,130.833160 
	C288.838165,130.833160 282.600494,130.833160 275.886566,130.833160 
	C275.886566,134.810150 275.555634,138.295929 276.056580,141.657730 
	C276.245331,142.924255 278.329987,144.813110 279.603210,144.856232 
	C285.042480,145.040482 290.501495,144.641174 296.859192,144.720779 
	C304.552826,144.630630 312.246429,144.540482 320.844330,144.710632 
	C324.883179,144.621521 328.921997,144.532410 333.863281,144.708832 
	C339.221100,144.629745 344.578949,144.550644 350.819672,144.731506 
	C353.549438,144.646057 356.279236,144.560608 359.909332,144.706848 
	C364.570007,144.652893 369.230652,144.598923 374.811432,144.790024 
	C382.854126,144.734039 390.896790,144.678055 399.869171,144.835007 
	C407.542664,144.797272 415.216125,144.759552 423.828491,144.877869 
	C437.195923,144.870743 450.563324,144.863602 464.876190,144.949509 
	C470.240356,144.951645 475.604523,144.953796 481.648163,144.987167 
	C482.100800,144.985046 482.553467,144.982941 483.913330,144.989136 
	C486.939514,144.983093 489.965668,144.977051 493.930054,144.987228 
	C502.237152,144.987961 510.547272,144.856949 518.849915,145.049332 
	C522.566101,145.135437 524.008484,143.514374 523.991882,140.064896 
	C523.984680,138.569687 524.009277,137.073959 523.978271,135.579330 
	C523.910828,132.331650 522.422424,130.815994 518.992981,130.959106 
	C514.349243,131.152924 509.691132,131.001007 505.039154,130.997940 
	C501.025299,130.995316 497.011414,130.993423 492.098267,130.990295 
	C489.399750,130.983948 486.701233,130.977585 483.623230,130.492371 
M102.406204,68.819847 
	C106.333092,95.036926 126.918869,111.517288 149.146561,113.895622 
	C184.472122,117.675400 212.365051,88.369507 208.225082,54.161316 
	C204.673355,24.813921 174.789093,2.499273 145.874725,8.576614 
	C116.630394,14.723310 100.019028,37.308311 102.406204,68.819847 
M382.909393,112.816071 
	C391.019287,112.873779 399.216431,113.715797 407.220825,112.825279 
	C423.685944,110.993462 433.650757,101.428322 436.194397,86.416405 
	C438.942169,70.199471 432.074188,57.729588 416.507324,52.163677 
	C407.445801,48.923744 397.983734,46.812847 388.732544,44.089794 
	C385.421661,43.115242 382.158051,41.563709 382.471802,37.432510 
	C382.812866,32.941666 386.411377,31.493357 390.223663,31.012075 
	C398.279907,29.995008 405.835754,31.300594 412.353851,36.578621 
	C414.247498,38.111996 416.170746,39.608784 418.303040,41.298733 
	C423.688324,35.422470 428.832977,29.808744 434.118378,24.041460 
	C433.423950,23.182749 432.965912,22.517860 432.411957,21.945789 
	C418.107574,7.173118 393.048401,2.904442 374.583282,11.822083 
	C352.428040,22.521849 353.323517,50.213005 366.285309,59.617466 
	C372.050446,63.800373 379.172546,66.316498 385.960419,68.827866 
	C392.482544,71.240929 399.413330,72.525749 406.076660,74.590157 
	C409.649445,75.697067 412.289459,78.033119 411.823639,82.288422 
	C411.391174,86.239029 408.985168,88.745743 405.184601,89.445068 
	C393.733643,91.552124 382.926056,90.523399 373.855621,82.191795 
	C372.660126,81.093704 371.488190,79.969963 370.019653,78.589539 
	C364.199310,83.663467 358.604492,88.540802 352.869232,93.540573 
	C360.034821,104.458679 370.196899,109.853676 382.909393,112.816071 
M219.917374,108.280365 
	C220.595764,109.204674 221.252869,110.913239 221.955826,110.932327 
	C229.211075,111.129288 236.473724,111.053299 244.172058,111.053299 
	C244.172058,100.560532 244.316895,90.763069 244.098892,80.973701 
	C244.014801,77.198334 245.347610,76.051392 249.008759,76.147133 
	C255.995636,76.329880 263.005951,76.354347 269.983612,75.996857 
	C284.149048,75.271126 295.745697,67.364250 299.309418,55.001583 
	C303.196014,41.518925 302.431732,28.524738 291.058807,18.261976 
	C284.865601,12.673300 277.328949,10.056783 269.132568,9.918735 
	C253.816498,9.660773 238.493912,9.783351 223.174026,9.778087 
	C222.234329,9.777763 221.294525,10.043391 219.909027,10.252578 
	C219.909027,42.779179 219.909027,75.048218 219.917374,108.280365 
M501.788269,12.507763 
	C500.414856,11.588864 499.129181,10.102396 497.649078,9.873598 
	C494.884247,9.446208 491.959045,10.077456 489.186035,9.676803 
	C484.067383,8.937241 481.595520,11.024842 479.567841,15.754289 
	C467.834717,43.121208 455.736359,70.331459 443.781769,97.603569 
	C441.898926,101.898895 440.118408,106.239059 438.059418,111.104774 
	C445.985107,111.104774 452.976105,110.881866 459.942780,111.196671 
	C463.550018,111.359673 465.260529,110.040268 466.587463,106.819748 
	C471.149750,95.747177 475.970062,84.780739 480.713226,73.782997 
	C484.121033,65.881508 487.562714,57.994637 491.553101,48.802490 
	C494.783295,56.456226 497.479156,62.843887 500.572784,70.174026 
	C495.608734,70.174026 491.874023,70.174026 488.290527,70.174026 
	C488.290527,77.827530 488.290527,84.873802 488.290527,92.191902 
	C494.423492,92.191902 500.081177,92.338135 505.725952,92.131599 
	C508.646729,92.024734 510.347046,92.921234 511.386902,95.733292 
	C512.942871,99.941040 514.726013,104.076225 516.651794,108.128601 
	C517.210693,109.304703 518.563660,110.900513 519.592041,110.930046 
	C527.647278,111.161354 535.712097,111.058197 544.685425,111.058197 
	C530.211914,77.817276 516.154175,45.531357 501.788269,12.507763 
M89.950241,16.482069 
	C77.858246,8.712009 64.875374,5.664356 50.483913,7.983313 
	C19.842834,12.920642 -0.431685,42.779663 6.762064,72.851646 
	C12.356185,96.236717 33.657852,113.391479 57.744484,113.955093 
	C74.435524,114.345657 87.867432,107.475517 99.655746,95.604408 
	C94.871460,91.078659 90.319908,86.976624 86.015747,82.629639 
	C83.163864,79.749374 81.165817,79.575378 77.814606,82.467110 
	C66.327034,92.379646 48.996948,91.189369 39.061329,80.288147 
	C28.399935,68.590622 28.494703,51.615814 39.283169,40.551079 
	C50.052830,29.505630 67.433441,28.995075 78.933998,39.376675 
	C79.885147,40.235287 80.892891,41.031219 81.874336,41.856274 
	C81.538368,41.358734 81.202400,40.861191 80.866432,40.363647 
	C86.887962,34.988457 92.909485,29.613264 99.331573,23.880510 
	C96.211281,21.405216 93.374161,19.154564 89.950241,16.482069 
M314.070435,55.500000 
	C314.070435,73.907364 314.070435,92.314720 314.070435,110.781525 
	C322.768158,110.781525 330.677917,110.781525 338.826752,110.781525 
	C338.826752,77.098953 338.826752,43.739620 338.826752,10.191254 
	C330.498169,10.191254 322.491730,10.191254 314.070526,10.191254 
	C314.070526,25.254242 314.070526,39.877121 314.070435,55.500000 
M199.478287,165.011383 
	C195.411530,165.011383 191.344772,165.011383 187.278015,165.011383 
	C192.769470,166.692123 191.678391,171.047226 191.702820,174.829773 
	C191.741470,180.814209 191.872040,186.805313 191.637421,192.780792 
	C191.538757,195.293350 190.608215,197.773239 190.069672,200.205551 
	C193.711365,200.205551 197.735779,200.205551 202.327896,200.205551 
	C195.238037,195.776672 199.294662,189.650482 198.906067,183.876770 
	C201.400192,184.636658 203.495590,185.749741 204.820007,187.459900 
	C206.417953,189.523193 207.363297,192.092255 208.588547,194.443741 
	C212.269730,201.508698 214.455246,202.290070 222.627380,199.460480 
	C214.308228,197.293930 213.521194,188.765381 208.458389,183.658585 
	C210.063309,182.837814 211.162949,182.412140 212.112106,181.765549 
	C215.546387,179.426041 217.399597,176.175049 216.600113,172.008377 
	C215.768982,167.676804 212.465775,165.706909 208.425201,165.149765 
	C205.812332,164.789490 203.115723,165.036514 199.478287,165.011383 
M271.232208,167.038940 
	C272.069183,166.587006 272.906158,166.135086 274.357635,165.351364 
	C268.615417,165.351364 263.784973,165.351364 260.354401,165.351364 
	C261.183441,167.832092 262.600433,170.367081 262.790009,172.990768 
	C263.196930,178.622131 262.822754,184.305008 263.041840,189.956177 
	C263.304840,196.738434 267.930298,200.807739 275.239410,201.029984 
	C284.271881,201.304672 288.623688,198.209106 289.268585,190.663055 
	C289.707245,185.529984 289.485413,180.337524 289.989380,175.213974 
	C290.328522,171.765961 291.419189,168.391861 292.138824,165.141998 
	C289.697174,165.141998 286.051453,165.141998 283.443359,165.141998 
	C284.541595,174.624161 285.387787,184.112274 283.538422,193.493103 
	C283.185150,195.285034 278.717072,197.691727 276.569794,197.327133 
	C274.127838,196.912537 270.452484,193.836212 270.289734,191.691040 
	C269.678772,183.637848 270.281403,175.492584 271.232208,167.038940 
M431.900970,169.715210 
	C427.229095,164.078156 421.005554,163.466415 414.713287,165.408752 
	C408.376038,167.364990 405.529236,172.650055 404.924469,179.064758 
	C404.692230,181.527863 404.699524,184.040878 404.879791,186.510559 
	C405.471222,194.614105 410.411957,200.299347 417.298523,200.992340 
	C426.159790,201.884048 432.451965,197.989990 434.487000,189.558670 
	C436.059845,183.042084 436.167114,176.397583 431.900970,169.715210 
M115.562416,189.519653 
	C118.553322,198.110153 125.333328,202.442368 133.429596,200.922775 
	C136.496124,200.347214 139.557343,199.743423 143.070007,199.065903 
	C144.872559,194.540237 139.690567,187.474197 147.856705,183.254913 
	C143.278214,183.254913 139.738174,183.254913 136.396530,183.254913 
	C136.626862,185.415054 136.875046,187.351089 137.031876,189.294495 
	C137.365555,193.429337 136.770172,197.211380 131.801163,197.965408 
	C126.903915,198.708542 123.767662,195.570282 123.317474,191.417175 
	C122.652481,185.282394 122.755066,178.905045 123.757126,172.833359 
	C124.119179,170.639664 127.981232,167.587570 130.309906,167.530563 
	C133.011002,167.464401 135.928757,170.061996 138.453293,171.911652 
	C139.511993,172.687347 139.802155,174.511963 140.904968,176.835876 
	C140.904968,172.248169 140.904968,168.850311 140.904968,165.296646 
	C137.632492,165.051483 134.661209,164.782684 131.684219,164.614761 
	C123.705055,164.164688 118.008553,167.696381 115.996399,175.460052 
	C114.905495,179.669174 115.430031,184.296967 115.562416,189.519653 
M361.376404,180.623856 
	C365.368347,172.848862 362.543793,166.348877 353.965759,165.360077 
	C347.208191,164.581131 340.289093,165.203583 333.441772,165.203583 
	C339.269775,166.209000 337.907684,170.612991 337.929657,174.238708 
	C337.968903,180.713928 338.062164,187.193649 337.858337,193.662827 
	C337.788696,195.873444 336.895081,198.058090 336.375732,200.263947 
	C340.305573,200.263947 344.490814,200.263947 349.855072,200.263947 
	C341.535461,196.772247 346.028229,190.757492 344.967834,187.289413 
	C350.740173,185.104584 355.828308,183.178741 361.376404,180.623856 
z"/>
<path fill="#9C9C9C" opacity="1.000000" stroke="none" 
	d="
M102.308029,68.381866 
	C100.019028,37.308311 116.630394,14.723310 145.874725,8.576614 
	C174.789093,2.499273 204.673355,24.813921 208.225082,54.161316 
	C212.365051,88.369507 184.472122,117.675400 149.146561,113.895622 
	C126.918869,111.517288 106.333092,95.036926 102.308029,68.381866 
M150.148331,89.829185 
	C163.534332,91.615898 173.577850,86.432152 180.330048,74.950859 
	C187.557312,62.661766 183.860306,46.413456 172.057022,37.475216 
	C160.769653,28.927652 145.416534,30.182779 135.175293,40.245186 
	C120.214195,54.945011 125.195374,83.542847 150.148331,89.829185 
z"/>
<path fill="#9C9C9C" opacity="1.000000" stroke="none" 
	d="
M382.504059,112.701569 
	C370.196899,109.853676 360.034821,104.458679 352.869232,93.540573 
	C358.604492,88.540802 364.199310,83.663467 370.019653,78.589539 
	C371.488190,79.969963 372.660126,81.093704 373.855621,82.191795 
	C382.926056,90.523399 393.733643,91.552124 405.184601,89.445068 
	C408.985168,88.745743 411.391174,86.239029 411.823639,82.288422 
	C412.289459,78.033119 409.649445,75.697067 406.076660,74.590157 
	C399.413330,72.525749 392.482544,71.240929 385.960419,68.827866 
	C379.172546,66.316498 372.050446,63.800373 366.285309,59.617466 
	C353.323517,50.213005 352.428040,22.521849 374.583282,11.822083 
	C393.048401,2.904442 418.107574,7.173118 432.411957,21.945789 
	C432.965912,22.517860 433.423950,23.182749 434.118378,24.041460 
	C428.832977,29.808744 423.688324,35.422470 418.303040,41.298733 
	C416.170746,39.608784 414.247498,38.111996 412.353851,36.578621 
	C405.835754,31.300594 398.279907,29.995008 390.223663,31.012075 
	C386.411377,31.493357 382.812866,32.941666 382.471802,37.432510 
	C382.158051,41.563709 385.421661,43.115242 388.732544,44.089794 
	C397.983734,46.812847 407.445801,48.923744 416.507324,52.163677 
	C432.074188,57.729588 438.942169,70.199471 436.194397,86.416405 
	C433.650757,101.428322 423.685944,110.993462 407.220825,112.825279 
	C399.216431,113.715797 391.019287,112.873779 382.504059,112.701569 
z"/>
<path fill="#9B9B9B" opacity="1.000000" stroke="none" 
	d="
M219.913208,107.798813 
	C219.909027,75.048218 219.909027,42.779179 219.909027,10.252578 
	C221.294525,10.043391 222.234329,9.777763 223.174026,9.778087 
	C238.493912,9.783351 253.816498,9.660773 269.132568,9.918735 
	C277.328949,10.056783 284.865601,12.673300 291.058807,18.261976 
	C302.431732,28.524738 303.196014,41.518925 299.309418,55.001583 
	C295.745697,67.364250 284.149048,75.271126 269.983612,75.996857 
	C263.005951,76.354347 255.995636,76.329880 249.008759,76.147133 
	C245.347610,76.051392 244.014801,77.198334 244.098892,80.973701 
	C244.316895,90.763069 244.172058,100.560532 244.172058,111.053299 
	C236.473724,111.053299 229.211075,111.129288 221.955826,110.932327 
	C221.252869,110.913239 220.595764,109.204674 219.913208,107.798813 
M269.510651,32.522156 
	C261.168854,32.522156 252.827042,32.522156 244.560913,32.522156 
	C244.560913,39.830341 244.560913,46.707096 244.560913,53.948261 
	C252.064056,53.948261 259.175781,54.074253 266.280731,53.909302 
	C272.206757,53.771721 276.049011,50.763515 276.926697,46.039680 
	C278.173187,39.330849 276.346680,35.689480 269.510651,32.522156 
z"/>
<path fill="#9C9C9C" opacity="1.000000" stroke="none" 
	d="
M501.942383,12.876599 
	C516.154175,45.531357 530.211914,77.817276 544.685425,111.058197 
	C535.712097,111.058197 527.647278,111.161354 519.592041,110.930046 
	C518.563660,110.900513 517.210693,109.304703 516.651794,108.128601 
	C514.726013,104.076225 512.942871,99.941040 511.386902,95.733292 
	C510.347046,92.921234 508.646729,92.024734 505.725952,92.131599 
	C500.081177,92.338135 494.423492,92.191902 488.290527,92.191902 
	C488.290527,84.873802 488.290527,77.827530 488.290527,70.174026 
	C491.874023,70.174026 495.608734,70.174026 500.572784,70.174026 
	C497.479156,62.843887 494.783295,56.456226 491.553101,48.802490 
	C487.562714,57.994637 484.121033,65.881508 480.713226,73.782997 
	C475.970062,84.780739 471.149750,95.747177 466.587463,106.819748 
	C465.260529,110.040268 463.550018,111.359673 459.942780,111.196671 
	C452.976105,110.881866 445.985107,111.104774 438.059418,111.104774 
	C440.118408,106.239059 441.898926,101.898895 443.781769,97.603569 
	C455.736359,70.331459 467.834717,43.121208 479.567841,15.754289 
	C481.595520,11.024842 484.067383,8.937241 489.186035,9.676803 
	C491.959045,10.077456 494.884247,9.446208 497.649078,9.873598 
	C499.129181,10.102396 500.414856,11.588864 501.942383,12.876599 
z"/>
<path fill="#9C9C9C" opacity="1.000000" stroke="none" 
	d="
M90.243645,16.692991 
	C93.374161,19.154564 96.211281,21.405216 99.331573,23.880510 
	C92.909485,29.613264 86.887962,34.988457 80.866432,40.363647 
	C81.202400,40.861191 81.538368,41.358734 81.874336,41.856274 
	C80.892891,41.031219 79.885147,40.235287 78.933998,39.376675 
	C67.433441,28.995075 50.052830,29.505630 39.283169,40.551079 
	C28.494703,51.615814 28.399935,68.590622 39.061329,80.288147 
	C48.996948,91.189369 66.327034,92.379646 77.814606,82.467110 
	C81.165817,79.575378 83.163864,79.749374 86.015747,82.629639 
	C90.319908,86.976624 94.871460,91.078659 99.655746,95.604408 
	C87.867432,107.475517 74.435524,114.345657 57.744484,113.955093 
	C33.657852,113.391479 12.356185,96.236717 6.762064,72.851646 
	C-0.431685,42.779663 19.842834,12.920642 50.483913,7.983313 
	C64.875374,5.664356 77.858246,8.712009 90.243645,16.692991 
z"/>
<path fill="#9C9C9C" opacity="1.000000" stroke="none" 
	d="
M314.070496,55.000000 
	C314.070526,39.877121 314.070526,25.254242 314.070526,10.191254 
	C322.491730,10.191254 330.498169,10.191254 338.826752,10.191254 
	C338.826752,43.739620 338.826752,77.098953 338.826752,110.781525 
	C330.677917,110.781525 322.768158,110.781525 314.070435,110.781525 
	C314.070435,92.314720 314.070435,73.907364 314.070496,55.000000 
z"/>
<path fill="#0C0C0C" opacity="1.000000" stroke="none" 
	d="
M199.967468,165.011383 
	C203.115723,165.036514 205.812332,164.789490 208.425201,165.149765 
	C212.465775,165.706909 215.768982,167.676804 216.600113,172.008377 
	C217.399597,176.175049 215.546387,179.426041 212.112106,181.765549 
	C211.162949,182.412140 210.063309,182.837814 208.458389,183.658585 
	C213.521194,188.765381 214.308228,197.293930 222.627625,199.460266 
	C214.455246,202.290070 212.269730,201.508698 208.588547,194.443741 
	C207.363297,192.092255 206.417953,189.523193 204.820007,187.459900 
	C203.495590,185.749741 201.400192,184.636658 198.906067,183.876770 
	C199.294662,189.650482 195.238037,195.776672 202.327896,200.205551 
	C197.735779,200.205551 193.711365,200.205551 190.069672,200.205551 
	C190.608215,197.773239 191.538757,195.293350 191.637421,192.780792 
	C191.872040,186.805313 191.741470,180.814209 191.702820,174.829773 
	C191.678391,171.047226 192.769470,166.692123 187.278015,165.011383 
	C191.344772,165.011383 195.411530,165.011383 199.967468,165.011383 
M209.701904,175.196060 
	C209.065506,168.211044 207.127121,166.998184 198.449280,168.427979 
	C198.449280,172.563095 198.449280,176.755081 198.449280,181.138351 
	C203.337677,181.383987 207.958176,181.983459 209.701904,175.196060 
z"/>
<path fill="#D2D2D2" opacity="1.000000" stroke="none" 
	d="
M463.930756,144.856461 
	C450.563324,144.863602 437.195923,144.870743 423.392639,144.365326 
	C422.970276,139.570038 422.983765,135.287277 422.997253,131.004517 
	C436.349548,131.003601 449.701843,131.002686 463.523193,131.471527 
	C463.971771,136.246338 463.951263,140.551392 463.930756,144.856461 
z"/>
<path fill="#111111" opacity="1.000000" stroke="none" 
	d="
M270.830750,167.210388 
	C270.281403,175.492584 269.678772,183.637848 270.289734,191.691040 
	C270.452484,193.836212 274.127838,196.912537 276.569794,197.327133 
	C278.717072,197.691727 283.185150,195.285034 283.538422,193.493103 
	C285.387787,184.112274 284.541595,174.624161 283.443359,165.141998 
	C286.051453,165.141998 289.697174,165.141998 292.138824,165.141998 
	C291.419189,168.391861 290.328522,171.765961 289.989380,175.213974 
	C289.485413,180.337524 289.707245,185.529984 289.268585,190.663055 
	C288.623688,198.209106 284.271881,201.304672 275.239410,201.029984 
	C267.930298,200.807739 263.304840,196.738434 263.041840,189.956177 
	C262.822754,184.305008 263.196930,178.622131 262.790009,172.990768 
	C262.600433,170.367081 261.183441,167.832092 260.354401,165.351364 
	C263.784973,165.351364 268.615417,165.351364 274.357635,165.351364 
	C272.906158,166.135086 272.069183,166.587006 270.830750,167.210388 
z"/>
<path fill="#080808" opacity="1.000000" stroke="none" 
	d="
M432.084290,170.042984 
	C436.167114,176.397583 436.059845,183.042084 434.487000,189.558670 
	C432.451965,197.989990 426.159790,201.884048 417.298523,200.992340 
	C410.411957,200.299347 405.471222,194.614105 404.879791,186.510559 
	C404.699524,184.040878 404.692230,181.527863 404.924469,179.064758 
	C405.529236,172.650055 408.376038,167.364990 414.713287,165.408752 
	C421.005554,163.466415 427.229095,164.078156 432.084290,170.042984 
M427.983276,178.853378 
	C427.630310,176.910080 427.466461,174.907852 426.883179,173.036331 
	C425.817535,169.617035 423.611633,167.151047 419.798431,167.176285 
	C415.982422,167.201553 413.241852,169.537415 413.032166,173.164200 
	C412.655731,179.676132 412.629028,186.277481 413.304840,192.752884 
	C413.662720,196.181625 416.519562,198.338745 420.500183,198.210175 
	C424.305481,198.087234 426.419739,195.910172 426.958191,192.543716 
	C427.631042,188.336807 427.685944,184.031052 427.983276,178.853378 
z"/>
<path fill="#080808" opacity="1.000000" stroke="none" 
	d="
M115.394142,189.127777 
	C115.430031,184.296967 114.905495,179.669174 115.996399,175.460052 
	C118.008553,167.696381 123.705055,164.164688 131.684219,164.614761 
	C134.661209,164.782684 137.632492,165.051483 140.904968,165.296646 
	C140.904968,168.850311 140.904968,172.248169 140.904968,176.835876 
	C139.802155,174.511963 139.511993,172.687347 138.453293,171.911652 
	C135.928757,170.061996 133.011002,167.464401 130.309906,167.530563 
	C127.981232,167.587570 124.119179,170.639664 123.757126,172.833359 
	C122.755066,178.905045 122.652481,185.282394 123.317474,191.417175 
	C123.767662,195.570282 126.903915,198.708542 131.801163,197.965408 
	C136.770172,197.211380 137.365555,193.429337 137.031876,189.294495 
	C136.875046,187.351089 136.626862,185.415054 136.396530,183.254913 
	C139.738174,183.254913 143.278214,183.254913 147.856705,183.254913 
	C139.690567,187.474197 144.872559,194.540237 143.070007,199.065903 
	C139.557343,199.743423 136.496124,200.347214 133.429596,200.922775 
	C125.333328,202.442368 118.553322,198.110153 115.394142,189.127777 
z"/>
<path fill="#111111" opacity="1.000000" stroke="none" 
	d="
M361.146423,180.938370 
	C355.828308,183.178741 350.740173,185.104584 344.967834,187.289413 
	C346.028229,190.757492 341.535461,196.772247 349.855072,200.263947 
	C344.490814,200.263947 340.305573,200.263947 336.375732,200.263947 
	C336.895081,198.058090 337.788696,195.873444 337.858337,193.662827 
	C338.062164,187.193649 337.968903,180.713928 337.929657,174.238708 
	C337.907684,170.612991 339.269775,166.209000 333.441772,165.203583 
	C340.289093,165.203583 347.208191,164.581131 353.965759,165.360077 
	C362.543793,166.348877 365.368347,172.848862 361.146423,180.938370 
M344.699707,177.405518 
	C344.699707,179.171295 344.699707,180.937073 344.699707,182.701965 
	C349.336945,183.311783 353.420288,183.050232 355.026642,178.937668 
	C355.972412,176.516129 355.884308,172.859863 354.674011,170.614441 
	C352.666748,166.890457 348.616486,167.749695 344.699677,168.283844 
	C344.699677,171.198929 344.699677,173.821442 344.699707,177.405518 
z"/>
<path fill="#ECECEC" opacity="1.000000" stroke="none" 
	d="
M492.997559,130.991211 
	C497.011414,130.993423 501.025299,130.995316 505.039154,130.997940 
	C509.691132,131.001007 514.349243,131.152924 518.992981,130.959106 
	C522.422424,130.815994 523.910828,132.331650 523.978271,135.579330 
	C524.009277,137.073959 523.984680,138.569687 523.991882,140.064896 
	C524.008484,143.514374 522.566101,145.135437 518.849915,145.049332 
	C510.547272,144.856949 502.237152,144.987961 493.463684,144.517731 
	C492.997406,139.695892 492.997467,135.343552 492.997559,130.991211 
z"/>
<path fill="#B4B4B4" opacity="1.000000" stroke="none" 
	d="
M374.004883,130.988510 
	C382.025024,130.970352 390.045135,130.952179 398.532684,131.428436 
	C398.979889,136.155914 398.959686,140.388977 398.939484,144.622055 
	C390.896790,144.678055 382.854126,144.734039 374.383575,144.244659 
	C373.972107,139.462357 373.988495,135.225433 374.004883,130.988510 
z"/>
<path fill="#797979" opacity="1.000000" stroke="none" 
	d="
M319.940063,144.450317 
	C312.246429,144.540482 304.552826,144.630630 296.418213,144.162689 
	C295.986298,139.395309 295.995361,135.186035 296.004395,130.976761 
	C303.693481,130.936569 311.382538,130.896362 319.535797,131.389648 
	C319.980042,136.098862 319.960052,140.274582 319.940063,144.450317 
z"/>
<path fill="#BDBDBD" opacity="1.000000" stroke="none" 
	d="
M399.404327,144.728531 
	C398.959686,140.388977 398.979889,136.155914 399.000671,131.458649 
	C406.687775,130.989044 414.374329,130.983643 422.529053,130.991379 
	C422.983765,135.287277 422.970276,139.570038 422.923218,144.287323 
	C415.216125,144.759552 407.542664,144.797272 399.404327,144.728531 
z"/>
<path fill="#686868" opacity="1.000000" stroke="none" 
	d="
M295.540100,130.904968 
	C295.995361,135.186035 295.986298,139.395309 295.965271,144.029663 
	C290.501495,144.641174 285.042480,145.040482 279.603210,144.856232 
	C278.329987,144.813110 276.245331,142.924255 276.056580,141.657730 
	C275.555634,138.295929 275.886566,134.810150 275.886566,130.833160 
	C282.600494,130.833160 288.838165,130.833160 295.540100,130.904968 
z"/>
<path fill="#E0E0E0" opacity="1.000000" stroke="none" 
	d="
M464.403473,144.902985 
	C463.951263,140.551392 463.971771,136.246338 463.991211,131.478729 
	C469.349243,131.005829 474.708374,130.995468 480.535645,131.449448 
	C480.992065,136.261169 480.980377,140.608566 480.968689,144.955948 
	C475.604523,144.953796 470.240356,144.951645 464.403473,144.902985 
z"/>
<path fill="#919191" opacity="1.000000" stroke="none" 
	d="
M333.000854,130.994415 
	C338.024597,130.957443 343.048309,130.920471 348.536591,131.396790 
	C349.313019,136.097229 349.624878,140.284378 349.936768,144.471542 
	C344.578949,144.550644 339.221100,144.629745 333.421234,144.156082 
	C332.986420,139.400360 332.993652,135.197372 333.000854,130.994415 
z"/>
<path fill="#9C9C9C" opacity="1.000000" stroke="none" 
	d="
M373.539276,130.955322 
	C373.988495,135.225433 373.972107,139.462357 373.923523,144.122131 
	C369.230652,144.598923 364.570007,144.652893 359.454926,144.171417 
	C359.000366,139.429153 359.000183,135.222321 359.000000,131.015503 
	C363.691223,130.984375 368.382446,130.953262 373.539276,130.955322 
z"/>
<path fill="#858585" opacity="1.000000" stroke="none" 
	d="
M332.541260,130.929321 
	C332.993652,135.197372 332.986420,139.400360 332.970032,144.023315 
	C328.921997,144.532410 324.883179,144.621521 320.392212,144.580475 
	C319.960052,140.274582 319.980042,136.098862 320.000000,131.460892 
	C324.027222,130.953842 328.054443,130.909042 332.541260,130.929321 
z"/>
<path fill="#9B9B9B" opacity="1.000000" stroke="none" 
	d="
M358.549500,130.950287 
	C359.000183,135.222321 359.000366,139.429153 359.004761,144.055573 
	C356.279236,144.560608 353.549438,144.646057 350.378204,144.601532 
	C349.624878,140.284378 349.313019,136.097229 349.000793,131.453110 
	C352.033295,130.959122 355.066162,130.922104 358.549500,130.950287 
z"/>
<path fill="#E8E8E8" opacity="1.000000" stroke="none" 
	d="
M492.547913,130.990753 
	C492.997467,135.343552 492.997406,139.695892 492.994598,144.509613 
	C489.965668,144.977051 486.939514,144.983093 483.467621,144.566620 
	C483.348846,139.753143 483.675781,135.362198 484.002747,130.971237 
	C486.701233,130.977585 489.399750,130.983948 492.547913,130.990753 
z"/>
<path fill="#ECECEC" opacity="1.000000" stroke="none" 
	d="
M483.812988,130.731812 
	C483.675781,135.362198 483.348846,139.753143 483.014008,144.562469 
	C482.553467,144.982941 482.100800,144.985046 481.308411,144.971558 
	C480.980377,140.608566 480.992065,136.261169 481.003418,131.447067 
	C481.876465,130.817688 482.749847,130.655029 483.812988,130.731812 
z"/>
<path fill="#FAFAFA" opacity="1.000000" stroke="none" 
	d="
M149.732574,89.722885 
	C125.195374,83.542847 120.214195,54.945011 135.175293,40.245186 
	C145.416534,30.182779 160.769653,28.927652 172.057022,37.475216 
	C183.860306,46.413456 187.557312,62.661766 180.330048,74.950859 
	C173.577850,86.432152 163.534332,91.615898 149.732574,89.722885 
z"/>
<path fill="#F8F8F8" opacity="1.000000" stroke="none" 
	d="
M269.899658,32.664059 
	C276.346680,35.689480 278.173187,39.330849 276.926697,46.039680 
	C276.049011,50.763515 272.206757,53.771721 266.280731,53.909302 
	C259.175781,54.074253 252.064056,53.948261 244.560913,53.948261 
	C244.560913,46.707096 244.560913,39.830341 244.560913,32.522156 
	C252.827042,32.522156 261.168854,32.522156 269.899658,32.664059 
z"/>
<path fill="#ECECEC" opacity="1.000000" stroke="none" 
	d="
M209.584808,175.570358 
	C207.958176,181.983459 203.337677,181.383987 198.449280,181.138351 
	C198.449280,176.755081 198.449280,172.563095 198.449280,168.427979 
	C207.127121,166.998184 209.065506,168.211044 209.584808,175.570358 
z"/>
<path fill="#F8F8F8" opacity="1.000000" stroke="none" 
	d="
M427.995453,179.310669 
	C427.685944,184.031052 427.631042,188.336807 426.958191,192.543716 
	C426.419739,195.910172 424.305481,198.087234 420.500183,198.210175 
	C416.519562,198.338745 413.662720,196.181625 413.304840,192.752884 
	C412.629028,186.277481 412.655731,179.676132 413.032166,173.164200 
	C413.241852,169.537415 415.982422,167.201553 419.798431,167.176285 
	C423.611633,167.151047 425.817535,169.617035 426.883179,173.036331 
	C427.466461,174.907852 427.630310,176.910080 427.995453,179.310669 
z"/>
<path fill="#F8F8F8" opacity="1.000000" stroke="none" 
	d="
M344.699707,176.924744 
	C344.699677,173.821442 344.699677,171.198929 344.699677,168.283844 
	C348.616486,167.749695 352.666748,166.890457 354.674011,170.614441 
	C355.884308,172.859863 355.972412,176.516129 355.026642,178.937668 
	C353.420288,183.050232 349.336945,183.311783 344.699707,182.701965 
	C344.699707,180.937073 344.699707,179.171295 344.699707,176.924744 
z"/>
</svg>