<?xml version="1.0" encoding="UTF-8"?>
<svg version="1.1" xmlns="http://www.w3.org/2000/svg" width="848" height="417">
<path d="M0 0 C1.40897804 0.00333092 1.40897804 0.00333092 2.84642029 0.00672913 C3.90744461 0.00680466 4.96846893 0.00688019 6.06164551 0.00695801 C7.21579453 0.01211929 8.36994354 0.01728058 9.55906677 0.02259827 C10.73404221 0.02401321 11.90901764 0.02542816 13.11959839 0.02688599 C16.88981116 0.0325046 20.65996556 0.04506026 24.43016052 0.05775452 C26.97898779 0.06276712 29.52781599 0.06733044 32.0766449 0.07142639 C38.3403375 0.08248007 44.603993 0.09963233 50.86766052 0.12025452 C50.32390868 6.91508693 49.30868864 13.44665126 47.82640076 20.09632874 C47.62142975 21.03746017 47.41645874 21.97859161 47.20527649 22.94824219 C46.7636319 24.97247666 46.31940484 26.99614912 45.87281609 29.01929855 C45.16609521 32.22096578 44.46625086 35.4240704 43.76806641 38.62760925 C42.5380983 44.26585318 41.30215317 49.90276673 40.06419373 55.53926086 C38.07836583 64.58103742 36.09737136 73.62385385 34.12454414 82.6684761 C33.43453313 85.82457466 32.73932362 88.97949816 32.04379272 92.13438416 C31.62214534 94.06305608 31.20071134 95.99177466 30.77952576 97.92054749 C30.58473129 98.79747757 30.38993683 99.67440765 30.1892395 100.57791138 C30.01398743 101.38513138 29.83873535 102.19235138 29.65817261 103.02403259 C29.5046102 103.72266859 29.3510478 104.42130459 29.19283199 105.14111137 C28.75957688 107.44382163 28.75957688 107.44382163 28.86766052 111.12025452 C29.65527771 110.28623108 30.4428949 109.45220764 31.25437927 108.59291077 C47.60744497 91.57273536 68.6659886 77.75939843 92.95750427 76.88197327 C111.92168211 76.52024102 128.07236654 78.84144707 142.56565857 92.23426819 C160.25862214 109.4596499 166.72897025 132.96279102 167.21946716 157.02259827 C167.46595272 194.59218641 154.22355794 228.87111531 128.00047302 256.01869202 C108.49205402 275.62495889 82.07702865 290.45650468 53.86766052 291.12025452 C53.15223083 291.15892639 52.43680115 291.19759827 51.69969177 291.23744202 C33.82855186 291.82338103 16.98860519 286.19436088 3.75047302 274.10853577 C-1.22495638 268.85439974 -5.18170799 262.71578372 -8.13233948 256.12025452 C-9.87510979 259.24800786 -10.68706216 262.15130509 -11.38624573 265.65541077 C-11.70818909 267.23999084 -11.70818909 267.23999084 -12.03663635 268.85658264 C-12.25384338 269.95421936 -12.47105042 271.05185608 -12.69483948 272.18275452 C-13.13210803 274.36144828 -13.57084336 276.53984831 -14.01124573 278.71791077 C-14.20275208 279.68221008 -14.39425842 280.6465094 -14.59156799 281.64002991 C-15.13233948 284.12025452 -15.13233948 284.12025452 -16.13233948 287.12025452 C-31.64233948 287.12025452 -47.15233948 287.12025452 -63.13233948 287.12025452 C-61.8231155 279.26491067 -60.44505389 271.50093443 -58.79176331 263.72181702 C-58.4510217 262.10343398 -58.4510217 262.10343398 -58.10339642 260.45235634 C-57.35117436 256.88279988 -56.59530759 253.31402597 -55.83937073 249.74525452 C-55.29933534 247.18681483 -54.75950475 244.6283319 -54.21986389 242.06980896 C-52.91705731 235.89522653 -51.61142605 229.72124469 -50.30476964 223.54747593 C-49.24447399 218.53739269 -48.1853824 213.5270562 -47.12705994 208.51655579 C-37.6801509 163.79242059 -28.18526447 119.07854021 -18.64527893 74.37416077 C-18.1971315 72.27367696 -17.74898592 70.17319275 -17.30084229 68.07270813 C-16.44640289 64.06797911 -15.59125014 60.06340331 -14.73568726 56.05891418 C-12.71953422 46.61529523 -10.71957594 37.16863879 -8.75099182 27.71498108 C-8.37487044 25.91245977 -7.99874644 24.109939 -7.62261963 22.30741882 C-6.92378464 18.95720672 -6.22998491 15.60600576 -5.53915405 12.25413513 C-5.23208304 10.77929818 -4.92485718 9.30449345 -4.6174469 7.82972717 C-4.35316391 6.55086639 -4.08888092 5.27200562 -3.81658936 3.95439148 C-2.90137899 0.16362494 -2.90137899 0.16362494 0 0 Z M26.86766052 112.12025452 C27.86766052 114.12025452 27.86766052 114.12025452 27.86766052 114.12025452 Z M27.41844177 147.32337952 C17.15582186 158.57611437 14.35103095 170.59453821 11.22337341 185.05799866 C10.68168311 187.55074786 10.12367525 190.03948435 9.56492615 192.52845764 C5.89506863 206.83208745 5.89506863 206.83208745 8.61766052 220.87025452 C8.98762146 221.60502014 9.3575824 222.33978577 9.73875427 223.09681702 C15.83287272 234.01983901 23.67279531 240.81932293 35.74266052 244.43275452 C50.68993249 247.55427316 64.28026537 243.09796242 76.86766052 235.12025452 C94.48260353 222.75479784 106.17145492 204.18697362 110.18016052 183.05775452 C112.50288672 166.19565568 109.91794755 150.64406843 100.86766052 136.12025452 C94.17740115 127.65556486 86.56428518 123.42723759 75.86766052 122.12025452 C56.10226355 121.16540442 40.39908925 134.03060897 27.41844177 147.32337952 Z " fill="#000000" transform="translate(459.13233947753906,-0.1202545166015625)"/>
<path d="M0 0 C1.93410556 0.05524164 3.86836274 0.10542045 5.80273438 0.15039062 C10.51809598 0.27097854 15.22611764 0.46036505 19.9375 0.6875 C15.4396065 6.07940397 10.67623458 11.08141684 5.6953125 16.02734375 C4.92694061 16.79430069 4.15856873 17.56125763 3.36691284 18.35145569 C0.93446491 20.7783474 -1.50145322 23.20172127 -3.9375 25.625 C-5.59658552 27.27906486 -7.25544202 28.93335945 -8.9140625 30.58789062 C-12.96089709 34.62375433 -17.01057953 38.65674277 -21.0625 42.6875 C-24.84906533 41.52641301 -28.0641336 40.27103469 -31.3671875 38.0859375 C-32.11484375 37.59609375 -32.8625 37.10625 -33.6328125 36.6015625 C-34.39335938 36.09367187 -35.15390625 35.58578125 -35.9375 35.0625 C-36.72125 34.546875 -37.505 34.03125 -38.3125 33.5 C-40.23322607 32.23513162 -42.14964347 30.96422497 -44.0625 29.6875 C-41.77688537 25.58550288 -39.00394363 22.09407834 -35.9375 18.5625 C-35.03792647 17.51920762 -34.13953586 16.47489439 -33.2421875 15.4296875 C-32.73518311 14.86902588 -32.22817871 14.30836426 -31.70581055 13.73071289 C-29.93555378 11.63940376 -29.93555378 11.63940376 -28.42895508 8.82983398 C-21.36635466 -2.32840915 -11.86700001 -0.58925654 0 0 Z " fill="#000000" transform="translate(789.0625,-0.6875)"/>
<path d="M0 0 C0.68320312 0.00215515 1.36640625 0.0043103 2.0703125 0.00653076 C26.26761978 0.1290183 46.49830086 5.74409319 64.5 22.5 C83.25877375 42.32774799 87.72418095 68.49483208 87.06640625 94.87890625 C85.62736326 130.08130188 69.17202139 161.03822044 43.53955078 184.72558594 C34.02795558 193.16015194 23.29093914 199.11531567 11.75 204.3125 C10.69425781 204.79589844 9.63851562 205.27929688 8.55078125 205.77734375 C-4.41568584 211.23953027 -19.22030461 213.83303047 -33.25 214.3125 C-34.08660156 214.35246094 -34.92320312 214.39242187 -35.78515625 214.43359375 C-58.33268074 215.0117354 -81.83223443 210.39203793 -98.8125 194.75 C-100.66687415 192.97202328 -102.45896072 191.15629858 -104.25 189.3125 C-105.17232422 188.36890625 -105.17232422 188.36890625 -106.11328125 187.40625 C-123.53919488 168.31429294 -126.29239855 141.01356259 -125.40966797 116.36669922 C-123.62322995 82.19492612 -106.61374205 52.22818334 -82 29.1875 C-58.77021421 9.33509442 -30.37198073 -0.13027198 0 0 Z M-47.5 63.375 C-63.64404202 80.3284926 -70.49351834 101.14198862 -70.25 124.3125 C-69.50541604 137.63378389 -65.53056091 150.89379339 -55.3359375 160.02734375 C-46.12540515 167.2997525 -36.8272453 169.06481197 -25.25 168.3125 C-8.25469908 165.72482838 5.28603221 156.46526154 15.71875 143.09375 C28.57862354 125.48561546 34.26887782 104.08073456 30.97998047 82.44311523 C28.91880979 70.43474052 24.31908185 59.29968466 14.5 51.625 C-5.56082823 38.20797295 -31.82142411 47.65412817 -47.5 63.375 Z " fill="#000000" transform="translate(299.25,76.6875)"/>
<path d="M0 0 C0.70640625 0.58265625 1.4128125 1.1653125 2.140625 1.765625 C13.13178883 11.74996467 17.02760518 24.50696389 17.875 38.79516602 C18.46733975 53.31926927 14.7266927 66.97641494 5 78 C4.43796875 78.65484375 3.8759375 79.3096875 3.296875 79.984375 C-10.93101764 95.40788887 -32.07015047 101.2140182 -52 105 C-52.87205078 105.16661133 -53.74410156 105.33322266 -54.64257812 105.50488281 C-71.44853341 108.49137156 -88.4284751 108.25965431 -105.4375 108.25 C-106.62425323 108.24940582 -107.81100647 108.24881165 -109.03372192 108.24819946 C-112.43795339 108.24169717 -115.84193055 108.22522872 -119.24609375 108.203125 C-120.28559174 108.1987291 -121.32508972 108.19433319 -122.39608765 108.18980408 C-123.35391144 108.18034256 -124.31173523 108.17088104 -125.29858398 108.16113281 C-126.55662086 108.15089081 -126.55662086 108.15089081 -127.84007263 108.14044189 C-130 108 -130 108 -133 107 C-131.15521494 130.71999276 -131.15521494 130.71999276 -117.8984375 149.84765625 C-106.71712191 157.88793089 -94.03425972 158.24968802 -80.80078125 156.6015625 C-64.00271228 153.07236384 -50.92903936 143.68345736 -41 130 C-33.08190733 131.57826847 -25.40832853 133.87320437 -17.70410156 136.25854492 C-15.480512 136.94350311 -13.25217545 137.61131004 -11.0234375 138.27929688 C-9.60905207 138.71509914 -8.19497721 139.15191095 -6.78125 139.58984375 C-6.11468384 139.78682358 -5.44811768 139.98380341 -4.76135254 140.18675232 C-2.90820312 140.77319336 -2.90820312 140.77319336 0 142 C0.33 142.99 0.66 143.98 1 145 C-12.41787563 169.21664641 -41.33074614 185.24558349 -67 193 C-76.858662 195.74263529 -86.75276811 197.65135158 -97 198 C-97.78890625 198.03996094 -98.5778125 198.07992187 -99.390625 198.12109375 C-120.42808875 198.7132078 -142.64108278 192.98505204 -158.375 178.5625 C-160.28706593 176.74026886 -162.14381681 174.8807865 -164 173 C-164.67933594 172.319375 -165.35867188 171.63875 -166.05859375 170.9375 C-173.34727327 163.14559316 -177.91415549 154.02116475 -181.3125 144 C-181.55492432 143.28924316 -181.79734863 142.57848633 -182.04711914 141.84619141 C-185.36076596 131.49675121 -186.36939213 121.13825872 -186.3125 110.3125 C-186.30686035 109.17619141 -186.3012207 108.03988281 -186.29541016 106.86914062 C-185.82031224 73.69695706 -171.7872548 44.66368767 -149 21 C-148.14535156 20.05060547 -148.14535156 20.05060547 -147.2734375 19.08203125 C-131.94924926 2.53976651 -110.31324835 -7.06364594 -89 -13 C-88.31067383 -13.19352051 -87.62134766 -13.38704102 -86.91113281 -13.58642578 C-59.52540584 -20.82339099 -22.40512231 -18.59148447 0 0 Z M-111.25390625 46.40625 C-117.27595266 53.47714598 -124.33675892 63.6764796 -126 73 C-121.21456823 73.76856702 -116.61063013 74.13833277 -111.765625 74.16796875 C-111.09419464 74.17220352 -110.42276428 74.17643829 -109.73098755 74.18080139 C-107.57059372 74.19063057 -105.41041211 74.19073173 -103.25 74.1875 C-102.14268524 74.18659363 -102.14268524 74.18659363 -101.01300049 74.18566895 C-67.08688556 74.35993027 -67.08688556 74.35993027 -38 59 C-34.05390489 53.56078783 -32.91339668 48.71175706 -33 42 C-33.89518924 36.62886456 -35.80484171 32.52509829 -40 29 C-65.22295244 13.6090208 -93.01641288 26.93606643 -111.25390625 46.40625 Z " fill="#000000" transform="translate(830,93)"/>
<path d="M0 0 C-0.60594022 6.15427158 -1.52326806 12.111067 -2.8125 18.15625 C-2.98628174 18.98459351 -3.16006348 19.81293701 -3.33911133 20.66638184 C-3.7034783 22.3978203 -4.06995556 24.12881593 -4.43847656 25.859375 C-5.0041641 28.51958215 -5.56109094 31.18152326 -6.1171875 33.84375 C-6.47344187 35.53135911 -6.83019441 37.21886315 -7.1875 38.90625 C-7.43753784 40.10296326 -7.43753784 40.10296326 -7.69262695 41.32385254 C-8.8848624 46.8848624 -8.8848624 46.8848624 -10 48 C-12.042584 48.2142274 -14.08608162 48.42195396 -16.13256836 48.5949707 C-38.77336622 50.52262965 -60.03112905 58.2470601 -76 75 C-76.46612701 75.47583023 -76.93225403 75.95166046 -77.4125061 76.44190979 C-83.01452894 82.9105908 -84.16328123 90.57881901 -85.78515625 98.71875 C-86.11713235 100.30448284 -86.4510934 101.88980122 -86.78688049 103.47473145 C-87.50283137 106.86967191 -88.20686231 110.26678645 -88.90216064 113.66601562 C-90.00870538 119.06482091 -91.15454904 124.45482044 -92.30810547 129.84375 C-94.50210302 140.1058455 -96.67173986 150.37295707 -98.83514404 160.64154053 C-100.4469763 168.29043504 -102.0619594 175.9386646 -103.67735481 183.58680725 C-104.23483662 186.22791853 -104.79125574 188.86925195 -105.34751892 191.51062012 C-105.68534597 193.11190369 -106.02319948 194.71318168 -106.36108398 196.31445312 C-106.51323364 197.03832718 -106.6653833 197.76220123 -106.82214355 198.50801086 C-107.49434286 201.68978621 -108.21106449 204.84425795 -109 208 C-126.82 208 -144.64 208 -163 208 C-160.7500018 194.50001081 -160.7500018 194.50001081 -159.69459534 189.51599121 C-159.45531815 188.37983368 -159.21604095 187.24367615 -158.96951294 186.0730896 C-158.71346283 184.87012238 -158.45741272 183.66715515 -158.19360352 182.42773438 C-157.91537316 181.11138484 -157.63737007 179.79498726 -157.35957336 178.47854614 C-156.60920612 174.92580309 -155.85569023 171.37373463 -155.10158658 167.82178307 C-154.29875627 164.03755012 -153.49891032 160.25268638 -152.69871521 156.46789551 C-151.17335251 149.2553662 -149.64537909 142.04339262 -148.11644453 134.83161974 C-146.25310343 126.04187063 -144.39312949 117.25140968 -142.53320312 108.4609375 C-140.55957753 99.13329012 -138.58529384 89.80578426 -136.60757446 80.47900391 C-135.96635874 77.45476354 -135.32519344 74.43051249 -134.68408203 71.40625 C-134.52786731 70.66936825 -134.37165259 69.9324865 -134.21070409 69.17327499 C-132.2725583 60.02900593 -130.34257532 50.88307586 -128.42461872 41.73455048 C-127.38797765 36.79007907 -126.34899829 31.8461001 -125.31004143 26.90211487 C-124.60630794 23.54723898 -123.90657012 20.19154576 -123.20692444 16.83581543 C-122.79042345 14.85338981 -122.37372443 12.87100578 -121.95678711 10.88867188 C-121.77080145 9.99001404 -121.58481579 9.0913562 -121.3931942 8.16546631 C-120.11383491 2.11383491 -120.11383491 2.11383491 -119 1 C-117.4651703 0.90680551 -115.92607918 0.882542 -114.38842773 0.88647461 C-113.40748642 0.88655014 -112.4265451 0.88662567 -111.4158783 0.88670349 C-110.3492244 0.89186478 -109.2825705 0.89702606 -108.18359375 0.90234375 C-106.55430687 0.90446617 -106.55430687 0.90446617 -104.8921051 0.90663147 C-101.40720925 0.91224952 -97.92237658 0.92480508 -94.4375 0.9375 C-92.08138113 0.94251267 -89.72526126 0.94707598 -87.36914062 0.95117188 C-81.57940536 0.96222481 -75.78970719 0.97898049 -70 1 C-71.20881988 9.46515874 -72.72827828 17.78824639 -74.625 26.125 C-75.0783703 28.126961 -75.5290229 30.12953998 -75.9765625 32.1328125 C-76.17330566 32.99793457 -76.37004883 33.86305664 -76.57275391 34.75439453 C-77.09345299 37.1102076 -77.09345299 37.1102076 -77 40 C-76.45472656 39.31035156 -75.90945312 38.62070313 -75.34765625 37.91015625 C-59.13911826 17.71182429 -28.83875339 -9.6129178 0 0 Z " fill="#000000" transform="translate(183,79)"/>
</svg>
