<?xml version="1.0" standalone="no"?>
<!DOCTYPE svg PUBLIC "-//W3C//DTD SVG 20010904//EN"
 "http://www.w3.org/TR/2001/REC-SVG-20010904/DTD/svg10.dtd">
<svg version="1.0" xmlns="http://www.w3.org/2000/svg"
 width="1342.000000pt" height="764.000000pt" viewBox="0 0 1342.000000 764.000000"
 preserveAspectRatio="xMidYMid meet">

<g transform="translate(0.000000,764.000000) scale(0.100000,-0.100000)"
fill="#000000" stroke="none">
<path d="M6200 7630 c-1832 -76 -3474 -638 -4557 -1557 -568 -482 -947 -1051
-1096 -1648 -95 -381 -94 -796 3 -1176 129 -506 409 -970 850 -1409 483 -482
1116 -880 1889 -1189 1312 -525 2894 -714 4441 -531 1361 160 2603 614 3515
1284 361 265 710 614 929 929 507 729 635 1527 370 2305 -197 579 -639 1148
-1250 1609 -1039 784 -2510 1273 -4134 1372 -239 15 -734 21 -960 11z m1060
-45 c1724 -125 3247 -679 4256 -1548 141 -122 387 -374 494 -507 267 -330 469
-720 566 -1090 64 -244 90 -576 65 -825 -50 -497 -270 -1006 -627 -1450 -314
-389 -771 -767 -1286 -1064 l-106 -61 -454 0 -453 0 -91 -39 c-509 -220 -1187
-404 -1823 -496 -448 -64 -686 -80 -1226 -80 -476 0 -584 6 -950 45 -719 79
-1468 266 -2046 512 l-124 53 -465 5 c-532 6 -452 -9 -664 119 -358 216 -651
444 -921 715 -801 804 -1081 1749 -794 2686 206 675 741 1330 1501 1838 1056
706 2456 1124 4024 1202 238 12 869 4 1124 -15z"/>
<path d="M6428 7123 c6 -2 18 -2 25 0 6 3 1 5 -13 5 -14 0 -19 -2 -12 -5z"/>
<path d="M6698 7123 c6 -2 18 -2 25 0 6 3 1 5 -13 5 -14 0 -19 -2 -12 -5z"/>
<path d="M5975 7109 c-1267 -80 -2328 -390 -2735 -799 l-85 -85 198 -3 197 -2
-51 -68 c-85 -110 -103 -159 -104 -277 0 -98 1 -104 39 -180 48 -97 158 -212
281 -293 275 -183 729 -343 1254 -442 120 -23 130 -21 131 22 0 10 14 86 31
170 168 834 492 1474 906 1788 77 59 241 142 323 164 55 14 54 14 -100 14 -85
-1 -213 -5 -285 -9z m-136 -316 c-337 -360 -596 -941 -740 -1659 -17 -87 -33
-160 -34 -162 -4 -5 -295 55 -410 84 -631 158 -1072 398 -1196 649 -31 64 -34
77 -34 165 0 88 2 100 34 165 154 312 784 594 1662 745 249 42 607 86 732 89
l59 1 -73 -77z"/>
<path d="M6843 7086 c542 -187 996 -949 1193 -2003 15 -81 31 -143 37 -143 6
0 99 18 207 40 370 75 663 168 917 290 190 91 300 165 404 269 96 96 141 175
160 276 20 109 -21 233 -116 349 l-45 56 195 0 c107 0 195 4 195 9 0 19 -173
172 -261 232 -400 269 -1095 481 -1929 588 -303 40 -719 71 -935 71 l-120 0
98 -34z m677 -236 c269 -29 447 -56 695 -105 899 -180 1454 -482 1517 -825 14
-71 -5 -163 -49 -238 -39 -68 -175 -200 -268 -261 -224 -145 -538 -270 -920
-365 -151 -37 -405 -90 -409 -84 -2 2 -13 57 -25 123 -129 709 -408 1340 -750
1698 l-74 77 49 0 c27 0 132 -9 234 -20z"/>
<path d="M6479 6036 c-276 -80 -511 -477 -633 -1066 l-24 -115 37 -7 c90 -16
623 -30 906 -24 280 6 553 20 562 29 5 6 -41 217 -71 324 -99 351 -248 632
-404 760 -117 95 -257 133 -373 99z m257 -56 c184 -90 356 -357 469 -725 39
-127 94 -369 86 -377 -3 -4 -116 -12 -251 -19 -237 -11 -883 -7 -1093 7 l-89
7 7 44 c12 82 64 280 105 404 122 366 298 608 493 680 80 30 186 22 273 -21z"/>
<path d="M2355 5939 c-258 -206 -482 -432 -650 -654 -115 -153 -185 -266 -271
-440 l-74 -150 181 -3 c166 -2 181 -4 176 -20 -3 -9 -24 -59 -46 -110 -160
-363 -202 -790 -115 -1180 99 -443 334 -837 727 -1218 756 -733 1972 -1235
3382 -1394 99 -11 198 -20 220 -20 45 0 65 -10 190 -94 95 -64 218 -121 241
-112 10 4 12 2 8 -6 -5 -8 -2 -9 9 -5 10 3 17 2 17 -4 0 -6 6 -9 12 -6 7 2 36
-2 63 -9 62 -17 227 -18 297 -2 29 6 59 11 66 9 6 -1 12 3 12 9 0 6 5 8 10 5
14 -8 52 4 45 15 -3 4 3 6 13 3 25 -6 182 76 265 138 l68 52 147 13 c908 85
1737 311 2452 669 1073 536 1726 1302 1831 2148 19 156 7 443 -26 597 -29 139
-87 319 -140 436 -19 42 -35 78 -35 80 0 2 81 5 180 6 l180 3 -44 97 c-152
338 -427 694 -770 996 -168 149 -316 262 -292 224 17 -27 25 -179 16 -292 -16
-208 -78 -366 -216 -550 -289 -384 -843 -707 -1605 -935 l-116 -35 -362 0
-361 0 55 -72 55 -73 0 -236 c0 -554 -55 -1064 -167 -1542 l-25 -107 -67 0
-67 0 -34 -122 c-145 -534 -373 -999 -612 -1250 l-70 -73 65 75 c35 41 90 111
122 155 l57 80 -392 3 c-215 1 -565 1 -777 0 l-385 -3 67 -90 c37 -49 94 -119
128 -154 34 -35 53 -59 43 -53 -34 17 -154 162 -231 277 -185 276 -353 678
-465 1112 l-11 42 -66 3 -67 3 -28 115 c-56 230 -105 531 -133 820 -31 320
-45 849 -26 933 5 21 30 63 56 95 l47 57 -378 5 -379 6 -131 42 c-636 201
-1099 449 -1405 752 -166 164 -279 341 -335 526 -25 81 -27 104 -28 259 -1 94
2 185 6 203 4 17 4 32 0 32 -4 -1 -52 -37 -107 -81z m180 -609 c282 -557 1126
-1024 2280 -1263 l160 -34 2 -274 c4 -905 161 -1715 448 -2326 102 -216 243
-434 370 -571 37 -40 65 -75 63 -78 -7 -7 -339 31 -538 62 -1291 199 -2406
707 -3085 1405 -147 151 -221 242 -331 404 -322 478 -433 998 -324 1523 91
438 379 909 776 1267 l97 88 27 -74 c15 -41 39 -99 55 -129z m8402 -23 c412
-428 637 -895 672 -1393 30 -434 -89 -851 -359 -1257 -611 -917 -1928 -1600
-3520 -1826 -172 -24 -431 -53 -436 -48 -2 2 26 36 62 77 368 408 633 1088
753 1935 45 310 71 696 71 1041 l0 200 123 23 c588 112 1234 347 1625 592 414
258 650 524 766 862 5 16 16 11 74 -41 38 -34 114 -108 169 -165z m-4852
-4607 c10 -11 16 -20 13 -20 -3 0 -13 9 -23 20 -10 11 -16 20 -13 20 3 0 13
-9 23 -20z m985 -4 c0 -2 -8 -10 -17 -17 -16 -13 -17 -12 -4 4 13 16 21 21 21
13z"/>
<path d="M5628 4174 c-11 -11 -9 -442 2 -619 10 -147 36 -401 49 -480 l7 -40
50 88 51 87 12 -77 c85 -541 258 -978 469 -1187 109 -107 196 -149 311 -148
280 2 534 345 686 926 81 311 123 633 141 1081 l6 169 55 104 55 105 -69 -7
c-266 -24 -445 -31 -878 -31 -429 0 -612 7 -875 31 -36 3 -68 3 -72 -2z m66
-106 c21 -38 35 -68 33 -68 -5 0 -88 143 -96 165 -7 20 27 -31 63 -97z m356
-158 c320 -19 1024 -10 1273 16 l57 6 0 -84 c0 -118 -18 -389 -36 -548 -85
-746 -325 -1303 -621 -1443 -59 -27 -79 -32 -148 -32 -71 0 -88 4 -150 34 -82
40 -188 141 -254 241 -175 268 -307 711 -366 1230 -12 112 -34 469 -35 573 l0
29 58 -6 c31 -3 131 -11 222 -16z"/>
</g>
</svg>
