<?xml version="1.0" standalone="no"?>
<!DOCTYPE svg PUBLIC "-//W3C//DTD SVG 20010904//EN"
 "http://www.w3.org/TR/2001/REC-SVG-20010904/DTD/svg10.dtd">
<svg version="1.0" xmlns="http://www.w3.org/2000/svg"
 width="381.000000pt" height="240.000000pt" viewBox="0 0 381.000000 240.000000"
 preserveAspectRatio="xMidYMid meet">

<g transform="translate(0.000000,240.000000) scale(0.100000,-0.100000)"
fill="#000000" stroke="none">
<path d="M1366 2101 l-199 -199 36 -65 c41 -72 118 -148 194 -189 l49 -27 140
140 139 139 -72 72 -73 72 -40 -39 -40 -39 32 -33 32 -33 -71 -72 -71 -71 -56
53 c-31 29 -56 58 -56 64 0 6 60 71 133 144 l132 132 125 -125 125 -125 -205
-205 -204 -205 39 -40 39 -40 206 205 205 205 205 -205 205 -205 40 40 40 40
-205 205 -205 205 125 125 125 125 132 -132 c73 -73 133 -138 133 -144 0 -6
-25 -35 -56 -64 l-56 -53 -71 71 -71 72 32 33 32 33 -40 39 -40 39 -73 -72
-72 -72 139 -139 140 -140 49 27 c76 41 153 117 194 189 l36 65 -199 199
c-109 109 -203 199 -209 199 -5 0 -82 -72 -170 -160 l-160 -160 -160 160 c-88
88 -164 160 -170 160 -6 0 -100 -90 -209 -199z"/>
<path d="M860 1725 c-325 -52 -539 -91 -605 -110 -31 -9 -63 -27 -82 -47 -64
-66 -63 -56 -63 -616 0 -507 0 -508 23 -552 31 -63 77 -82 282 -119 413 -73
992 -157 1303 -188 143 -14 190 -14 322 -4 387 30 1425 189 1538 237 49 20 81
51 103 99 17 37 19 75 19 550 0 482 -2 512 -20 552 -23 52 -63 77 -150 97
-117 27 -787 136 -834 136 -19 0 -84 -66 -74 -75 2 -2 112 -20 243 -40 278
-42 661 -110 698 -124 14 -6 34 -22 44 -38 17 -25 18 -64 21 -490 3 -500 3
-502 -51 -537 -63 -42 -1037 -181 -1515 -217 -171 -13 -288 -6 -662 36 -567
65 -1141 154 -1173 182 -46 41 -47 57 -47 528 0 498 1 504 64 530 56 23 588
118 899 160 26 3 47 9 47 13 -1 4 -15 23 -33 43 l-32 37 -265 -43z"/>
<path d="M2070 1325 c0 -43 1 -45 30 -45 l30 0 0 -200 0 -200 -30 0 c-29 0
-30 -2 -30 -45 l0 -45 110 0 110 0 0 45 c0 45 0 45 -35 45 -19 0 -35 4 -35 9
0 5 20 25 44 45 l44 36 45 -53 c31 -36 46 -63 49 -87 l3 -35 88 -3 87 -3 0 46
0 45 -42 0 c-41 1 -46 4 -100 73 l-57 72 37 32 c29 25 46 32 80 33 l42 0 0 45
0 45 -95 0 -95 0 0 -40 c0 -36 -5 -43 -62 -90 l-63 -50 -3 185 -2 185 -75 0
-75 0 0 -45z"/>
<path d="M1137 1342 c-10 -10 -17 -28 -17 -40 0 -50 75 -72 104 -30 21 30 20
44 -4 68 -25 25 -62 26 -83 2z"/>
<path d="M1307 1342 c-20 -22 -22 -63 -5 -80 7 -7 26 -12 43 -12 38 0 55 16
55 51 0 53 -59 79 -93 41z"/>
<path d="M3455 1335 c-14 -13 -25 -30 -25 -37 1 -59 51 -98 100 -78 27 11 50
46 50 76 0 24 -47 64 -75 64 -14 0 -37 -11 -50 -25z m91 -20 c19 -30 11 -62
-21 -77 -48 -22 -91 32 -61 77 22 33 60 33 82 0z"/>
<path d="M3480 1283 c0 -27 3 -34 9 -24 8 12 12 12 24 2 13 -10 15 -7 14 21
-2 26 -7 34 -24 36 -20 3 -23 -1 -23 -35z m35 17 c3 -5 -1 -10 -10 -10 -9 0
-13 5 -10 10 3 6 8 10 10 10 2 0 7 -4 10 -10z"/>
<path d="M380 1300 c0 -39 1 -40 35 -40 l35 0 0 -190 0 -190 -35 0 c-35 0 -35
0 -35 -45 l0 -45 115 0 115 0 0 45 c0 45 0 45 -35 45 l-36 0 3 68 3 67 138 3
137 3 0 -71 0 -70 -35 0 c-35 0 -35 0 -35 -45 l0 -45 115 0 115 0 0 45 c0 45
0 45 -35 45 l-35 0 0 190 0 190 35 0 c34 0 35 1 35 40 l0 40 -115 0 -115 0 0
-40 c0 -39 1 -40 35 -40 l35 0 0 -75 0 -75 -140 0 -141 0 3 73 3 72 33 3 c30
3 32 6 32 43 l0 39 -115 0 -115 0 0 -40z"/>
<path d="M1743 1171 c-35 -17 -42 -17 -47 -5 -4 12 -22 14 -78 12 l-73 -3 -3
-42 c-3 -42 -2 -43 27 -43 l31 0 0 -104 0 -105 -27 -3 c-25 -3 -28 -7 -28 -43
l0 -40 108 -3 107 -3 0 46 c0 43 -1 45 -30 45 l-30 0 0 89 0 89 34 21 c18 12
49 21 67 21 65 -1 89 -41 89 -151 l0 -69 -30 0 c-29 0 -30 -2 -30 -45 l0 -45
105 0 105 0 0 45 c0 43 -1 45 -30 45 l-30 0 0 93 c0 114 -21 160 -90 195 -54
27 -92 28 -147 3z"/>
<path d="M1010 1135 c0 -43 1 -45 29 -45 l29 0 4 -98 c4 -118 22 -156 88 -190
36 -19 55 -22 94 -18 27 3 59 12 71 20 20 13 24 13 29 1 4 -11 24 -15 81 -15
l75 0 0 45 c0 43 -1 45 -30 45 l-29 0 -3 148 -3 147 -75 0 -75 0 -3 -42 c-3
-42 -2 -43 27 -43 l31 0 0 -89 c0 -87 -1 -90 -29 -110 -42 -30 -101 -28 -132
5 -22 24 -24 34 -27 155 l-4 129 -74 0 -74 0 0 -45z"/>
<path d="M2693 1155 c-61 -37 -98 -115 -90 -191 7 -71 43 -126 99 -155 52 -27
130 -29 176 -5 28 14 32 15 32 1 0 -12 14 -15 75 -15 l75 0 0 45 c0 43 -1 45
-30 45 l-30 0 0 105 0 105 30 0 c29 0 30 2 30 45 l0 45 -75 0 c-61 0 -75 -3
-75 -15 0 -14 -3 -14 -30 0 -47 24 -137 19 -187 -10z m185 -75 c31 -19 32 -21
32 -94 0 -69 -2 -76 -26 -95 -36 -29 -112 -29 -147 0 -57 44 -57 144 0 189 33
26 98 26 141 0z"/>
<path d="M3127 1173 c-4 -3 -7 -24 -7 -45 0 -36 2 -38 30 -38 l30 0 0 -105 0
-105 -30 0 c-29 0 -30 -2 -30 -45 l0 -45 125 0 125 0 0 45 0 45 -45 0 -46 0 3
92 3 92 35 8 c19 4 52 10 73 13 37 6 37 7 37 52 l0 46 -45 -6 c-25 -4 -58 -13
-74 -22 -27 -13 -29 -13 -34 5 -4 18 -14 20 -74 20 -38 0 -73 -3 -76 -7z"/>
<path d="M1757 633 c-8 -14 -29 -154 -24 -160 3 -3 9 12 13 33 8 48 20 64 46
64 19 0 20 -5 16 -50 -6 -62 7 -66 16 -5 9 56 2 68 -36 63 -29 -5 -30 -4 -25
29 6 32 3 41 -6 26z"/>
<path d="M1997 618 c-16 -61 -20 -148 -8 -148 7 0 9 5 6 11 -4 6 -2 39 5 74
12 64 9 114 -3 63z"/>
<path d="M2176 623 c-6 -20 -26 -132 -26 -145 0 -4 7 -8 15 -8 9 0 12 6 9 15
-4 8 -1 45 5 81 11 62 9 98 -3 57z"/>
<path d="M2666 625 c-3 -9 -6 -24 -6 -34 0 -14 -6 -17 -28 -13 -40 5 -64 -21
-60 -67 3 -32 6 -36 35 -39 38 -4 47 9 63 97 11 61 9 89 -4 56z m-18 -82 c5
-34 -16 -65 -41 -61 -15 2 -23 11 -25 29 -6 50 59 81 66 32z"/>
<path d="M1112 618 c-7 -7 -12 -18 -12 -25 0 -7 -3 -13 -7 -13 -5 0 -9 -28 -9
-62 -2 -51 -6 -65 -24 -80 -16 -13 -18 -18 -7 -18 22 0 34 20 46 82 8 36 18
59 29 63 15 6 15 8 -2 14 -19 7 -19 8 2 29 14 14 17 22 9 22 -7 0 -18 -5 -25
-12z"/>
<path d="M2288 603 c-6 -16 -12 -40 -13 -55 -6 -63 -17 -98 -38 -113 -17 -12
-18 -15 -4 -15 23 0 44 36 52 90 4 24 15 50 24 57 10 8 12 12 4 13 -22 0 -14
30 10 40 l22 9 -23 0 c-15 1 -26 -8 -34 -26z"/>
<path d="M1155 528 c-9 -60 0 -76 10 -19 5 31 14 45 33 55 l27 15 -32 -1 c-30
-1 -32 -3 -38 -50z"/>
<path d="M1235 556 c-9 -13 -15 -37 -13 -53 2 -23 8 -29 34 -31 40 -4 66 25
62 70 -3 29 -7 33 -35 36 -25 2 -35 -2 -48 -22z m65 -1 c13 -15 5 -55 -14 -67
-39 -26 -69 15 -42 57 19 28 38 32 56 10z"/>
<path d="M1355 570 c3 -5 16 -10 28 -10 19 0 17 -4 -16 -38 -20 -21 -37 -41
-37 -45 0 -4 19 -6 43 -6 29 2 34 3 15 6 -32 5 -35 15 -13 33 9 7 25 26 36 42
l20 28 -41 0 c-25 0 -39 -4 -35 -10z"/>
<path d="M1456 561 c-11 -12 -16 -31 -14 -53 3 -28 7 -33 32 -36 16 -2 33 1
38 6 7 7 -1 10 -23 9 -24 -2 -34 3 -37 16 -3 13 3 17 25 17 37 0 56 13 51 36
-5 27 -50 30 -72 5z m60 -2 c8 -14 -14 -29 -45 -29 -23 0 -24 1 -6 20 20 22
40 26 51 9z"/>
<path d="M1565 570 c-2 -3 -6 -27 -9 -55 l-6 -50 18 50 c27 79 77 75 62 -6 -4
-21 -4 -39 1 -39 10 0 23 86 14 100 -6 10 -73 11 -80 0z"/>
<path d="M1865 556 c-9 -14 -15 -37 -13 -53 3 -26 6 -28 46 -28 23 -1 42 4 42
10 1 5 5 29 9 53 l8 42 -38 0 c-30 0 -42 -6 -54 -24z m71 0 c10 -26 -19 -71
-46 -71 -31 0 -38 27 -16 60 18 27 53 33 62 11z"/>
<path d="M2048 563 c-20 -24 -27 -57 -16 -76 12 -23 88 -21 88 2 0 9 3 32 6
51 6 35 5 36 -28 38 -23 2 -40 -4 -50 -15z m58 -1 c9 -5 9 -16 0 -42 -9 -28
-16 -35 -36 -35 -31 0 -40 38 -14 66 18 20 32 23 50 11z"/>
<path d="M2345 556 c-9 -13 -15 -37 -13 -53 2 -23 8 -29 35 -31 38 -4 66 30
61 75 -2 23 -8 29 -35 31 -25 2 -35 -2 -48 -22z m68 -7 c15 -25 -17 -71 -46
-67 -28 4 -33 32 -12 64 18 27 42 28 58 3z"/>
<path d="M2466 561 c-11 -12 -16 -31 -14 -53 3 -29 7 -33 35 -36 34 -3 63 25
63 63 0 45 -53 61 -84 26z m63 -9 c15 -27 -9 -67 -39 -67 -31 0 -40 38 -14 66
22 24 40 24 53 1z"/>
<path d="M2707 573 c-16 -15 -6 -44 19 -53 34 -13 25 -35 -15 -34 -17 1 -28
-2 -25 -7 9 -15 61 -10 75 7 11 14 10 19 -9 34 -12 10 -28 20 -34 22 -23 8 4
30 29 23 16 -4 22 -2 18 5 -7 11 -48 14 -58 3z"/>
</g>
</svg>
