<?xml version="1.0" standalone="no"?>
<!DOCTYPE svg PUBLIC "-//W3C//DTD SVG 20010904//EN"
 "http://www.w3.org/TR/2001/REC-SVG-20010904/DTD/svg10.dtd">
<svg version="1.0" xmlns="http://www.w3.org/2000/svg"
 width="200.000000pt" height="200.000000pt" viewBox="0 0 200.000000 200.000000"
 preserveAspectRatio="xMidYMid meet">

<g transform="translate(0.000000,200.000000) scale(0.100000,-0.100000)"
fill="#000000" stroke="none">
<path d="M0 1000 l0 -1000 1000 0 1000 0 0 1000 0 1000 -1000 0 -1000 0 0
-1000z m324 431 c15 -17 18 -40 17 -168 -1 -139 -3 -149 -23 -166 -12 -10 -30
-16 -40 -14 -16 5 -18 -8 -20 -191 -2 -123 -7 -197 -13 -197 -6 0 -11 126 -13
354 -2 305 0 357 13 378 19 28 55 30 79 4z m306 -246 c0 -255 1 -265 20 -275
11 -6 18 -15 15 -21 -9 -14 -23 -11 -45 11 -19 19 -20 33 -20 278 0 142 3 262
7 265 20 20 23 -16 23 -258z m940 65 c0 -16 -4 -30 -10 -30 -5 0 -10 14 -10
30 0 17 5 30 10 30 6 0 10 -13 10 -30z m-1072 -82 c8 -8 12 -53 12 -135 0
-120 -1 -123 -25 -139 -23 -15 -27 -15 -50 0 -22 14 -25 24 -25 71 0 46 4 57
24 70 13 8 31 13 40 9 13 -5 16 2 16 44 0 64 -23 88 -50 54 -10 -12 -21 -22
-24 -22 -11 0 -6 36 6 48 15 15 61 15 76 0z m407 -8 c13 -14 15 -39 13 -144
-4 -169 -22 -166 -28 6 -5 125 -6 133 -25 133 -19 0 -20 -8 -25 -133 -3 -78
-9 -132 -15 -132 -6 0 -12 54 -15 132 -5 125 -6 133 -25 133 -19 0 -20 -8 -25
-133 -3 -78 -9 -132 -15 -132 -14 0 -19 245 -5 269 14 27 140 28 165 1z m193
8 c10 -12 15 -61 13 -120 -1 -26 -4 -28 -41 -28 -40 0 -40 0 -40 -39 0 -22 3
-46 6 -55 9 -23 45 -20 51 4 7 26 23 26 23 0 0 -11 -11 -27 -25 -36 -23 -15
-27 -15 -50 0 -24 16 -25 19 -25 139 0 82 4 127 12 135 16 16 63 15 76 0z
m200 0 c14 -14 16 -48 3 -48 -5 0 -15 9 -22 21 -9 13 -20 18 -31 14 -16 -6
-18 -22 -18 -135 0 -71 -4 -131 -9 -134 -16 -10 -19 18 -18 141 2 85 6 125 16
136 16 20 62 22 79 5z m146 -4 c13 -12 16 -39 16 -130 0 -101 -2 -116 -20
-134 -25 -25 -45 -25 -70 0 -45 45 -12 161 41 147 18 -5 20 -1 17 51 -2 46 -7
57 -21 60 -12 3 -20 -4 -24 -17 -6 -24 -33 -29 -33 -7 0 22 29 46 55 46 13 0
31 -7 39 -16z m126 -135 c0 -97 -4 -148 -10 -144 -6 4 -10 65 -10 151 0 89 4
144 10 144 6 0 10 -57 10 -151z m188 139 c7 -7 12 -40 12 -80 l0 -68 -40 0
-40 0 0 -50 c0 -59 23 -79 48 -42 18 27 32 28 32 2 0 -26 -43 -54 -70 -45 -31
10 -40 45 -40 153 0 111 13 142 59 142 15 0 32 -5 39 -12z m-1250 -335 c-10
-2 -26 -2 -35 0 -10 3 -2 5 17 5 19 0 27 -2 18 -5z m-103 -77 c0 -52 -18 -75
-49 -63 -12 5 -16 20 -16 62 l0 56 33 -3 c31 -3 32 -4 32 -52z m115 44 c0 -5
-7 -10 -15 -10 -18 0 -20 -26 -2 -34 10 -5 10 -7 0 -12 -18 -8 -16 -34 2 -34
8 0 15 -4 15 -10 0 -5 -13 -10 -30 -10 l-30 0 0 60 0 60 30 0 c17 0 30 -4 30
-10z m70 -10 c0 -11 5 -20 10 -20 6 0 10 9 10 20 0 11 6 20 14 20 11 0 13 -7
6 -32 -4 -18 -11 -45 -14 -60 -7 -30 -21 -37 -29 -14 -13 34 -19 106 -8 106 6
0 11 -9 11 -20z m150 11 c0 -5 -10 -11 -22 -13 -21 -3 -21 -4 -4 -21 18 -17
18 -19 0 -32 -18 -14 -18 -15 4 -21 32 -9 27 -24 -8 -24 l-30 0 0 60 0 60 30
0 c17 0 30 -4 30 -9z m70 -41 c0 -38 4 -50 15 -50 8 0 15 -4 15 -10 0 -5 -11
-10 -25 -10 -24 0 -25 3 -25 60 0 33 4 60 10 60 6 0 10 -22 10 -50z m146 26
c15 -61 -16 -115 -50 -87 -16 14 -23 91 -9 104 3 4 17 7 29 7 17 0 25 -7 30
-24z m119 4 c7 -23 -10 -50 -31 -50 -8 0 -14 -10 -14 -25 0 -14 -4 -25 -10
-25 -6 0 -10 27 -10 60 0 60 0 60 29 60 21 0 32 -6 36 -20z m115 5 c16 -19 6
-45 -20 -52 -13 -3 -20 -14 -20 -29 0 -13 -4 -24 -10 -24 -6 0 -10 27 -10 60
0 57 1 60 24 60 13 0 29 -7 36 -15z m110 5 c0 -5 -7 -10 -15 -10 -21 0 -19
-30 3 -30 16 -1 16 -1 0 -14 -24 -18 -23 -36 3 -36 11 0 17 -4 14 -10 -3 -5
-17 -10 -31 -10 -23 0 -24 3 -24 60 0 57 1 60 25 60 14 0 25 -4 25 -10z m91
-17 l1 -28 11 28 c19 49 37 33 37 -33 0 -62 -19 -86 -21 -27 -2 27 -2 28 -6 7
-6 -33 -23 -50 -23 -24 -1 19 -1 19 -13 -1 -11 -18 -13 -15 -17 30 -6 59 -3
75 16 75 8 0 14 -11 15 -27z m159 17 c0 -5 -7 -10 -15 -10 -18 0 -20 -26 -2
-34 10 -5 10 -7 0 -12 -18 -8 -16 -34 2 -34 8 0 15 -5 15 -11 0 -6 -12 -9 -27
-7 -27 3 -28 6 -31 61 l-3 57 31 0 c16 0 30 -4 30 -10z m85 -12 l8 -23 4 23
c9 44 23 21 23 -38 0 -67 -13 -77 -34 -27 l-14 32 -1 -32 c-2 -60 -21 -34 -21
27 0 44 4 60 14 60 7 0 17 -10 21 -22z m129 -15 c-9 -65 -14 -83 -24 -83 -6 0
-10 23 -10 50 0 28 -4 50 -10 50 -5 0 -10 5 -10 10 0 6 13 10 29 10 29 0 30
-2 25 -37z"/>
<path d="M267 1413 c-4 -3 -7 -70 -7 -149 0 -116 3 -143 15 -148 8 -3 21 2 30
10 12 12 15 41 15 135 0 66 -5 129 -10 140 -11 19 -31 25 -43 12z"/>
<path d="M436 1004 c-16 -42 -3 -94 24 -94 20 0 30 19 30 55 0 36 -10 55 -30
55 -10 0 -21 -7 -24 -16z"/>
<path d="M1042 1148 c-7 -7 -12 -31 -12 -55 0 -41 1 -43 30 -43 29 0 30 2 30
43 0 38 -13 67 -30 67 -3 0 -11 -5 -18 -12z"/>
<path d="M1384 1007 c-3 -8 -4 -32 -2 -53 2 -31 7 -39 23 -39 17 0 20 7 20 50
0 39 -4 50 -18 53 -9 2 -20 -3 -23 -11z"/>
<path d="M1703 1153 c-8 -3 -13 -24 -13 -54 0 -46 2 -49 26 -49 24 0 25 2 22
52 -3 50 -10 61 -35 51z"/>
<path d="M370 750 c0 -25 4 -39 10 -35 6 3 10 19 10 35 0 16 -4 32 -10 35 -6
4 -10 -10 -10 -35z"/>
<path d="M917 783 c-7 -12 -2 -61 6 -69 4 -4 7 11 7 34 0 40 -4 50 -13 35z"/>
<path d="M1030 775 c0 -9 5 -15 11 -13 6 2 11 8 11 13 0 5 -5 11 -11 13 -6 2
-11 -4 -11 -13z"/>
<path d="M1150 775 c0 -8 5 -15 10 -15 6 0 10 7 10 15 0 8 -4 15 -10 15 -5 0
-10 -7 -10 -15z"/>
</g>
</svg>
