<?xml version="1.0" standalone="no"?>
<!DOCTYPE svg PUBLIC "-//W3C//DTD SVG 20010904//EN"
 "http://www.w3.org/TR/2001/REC-SVG-20010904/DTD/svg10.dtd">
<svg version="1.0" xmlns="http://www.w3.org/2000/svg"
 width="550.000000pt" height="204.000000pt" viewBox="0 0 550.000000 204.000000"
 preserveAspectRatio="xMidYMid meet">

<g transform="translate(0.000000,204.000000) scale(0.100000,-0.100000)"
fill="#000000" stroke="none">
<path d="M2760 675 l0 -65 105 0 105 0 0 65 0 65 -105 0 -105 0 0 -65z"/>
<path d="M1212 380 c-43 -26 -71 -89 -72 -159 0 -116 71 -190 169 -177 71 10
85 10 101 2 13 -5 15 4 12 69 -4 71 -3 77 17 82 39 10 21 23 -32 23 l-54 0 5
-55 c5 -64 -13 -95 -57 -95 -60 0 -91 54 -91 155 0 114 38 166 108 149 28 -7
42 -19 59 -49 l23 -40 0 58 0 57 -77 0 c-61 0 -85 -5 -111 -20z"/>
<path d="M1865 390 c3 -5 12 -10 20 -10 21 0 25 -25 25 -165 0 -108 -3 -137
-16 -149 -14 -15 -9 -16 53 -16 64 0 66 1 45 16 -19 13 -22 24 -22 80 l0 65
28 -3 c23 -2 33 -15 67 -80 l40 -78 60 1 c41 1 52 3 35 8 -16 4 -43 33 -72 76
-27 38 -48 71 -48 75 0 3 13 13 29 23 60 35 61 121 2 152 -35 18 -257 23 -246
5z m211 -45 c19 -30 11 -81 -16 -95 -10 -6 -35 -10 -54 -10 l-36 0 0 65 0 65
45 0 c36 0 48 -5 61 -25z"/>
<path d="M2598 383 c21 -15 22 -22 22 -135 0 -88 4 -127 16 -149 39 -77 198
-79 232 -4 7 15 15 81 18 148 6 108 9 124 28 139 20 17 19 18 -43 18 -53 0
-62 -2 -52 -14 6 -7 14 -62 17 -122 8 -134 -5 -178 -56 -189 -41 -9 -82 19
-90 61 -3 16 -4 77 -2 137 3 81 7 107 17 107 8 0 17 5 20 10 4 6 -22 10 -72 9
-74 0 -77 -1 -55 -16z"/>
<path d="M3320 395 c0 -3 11 -10 25 -15 l25 -10 0 -148 c0 -102 -4 -152 -12
-160 -9 -9 3 -12 58 -11 51 0 63 3 47 9 -21 8 -23 16 -23 75 l0 65 46 0 c83 0
134 40 134 106 0 71 -48 94 -195 94 -58 0 -105 -2 -105 -5z m212 -42 c11 -10
18 -30 18 -54 0 -44 -35 -79 -81 -79 l-29 0 0 75 0 75 37 0 c20 0 45 -7 55
-17z"/>
<path d="M4099 373 c-42 -36 -59 -79 -59 -155 0 -108 56 -178 144 -178 98 0
156 67 156 183 0 122 -47 177 -154 177 -45 0 -60 -5 -87 -27z m123 -4 c31 -16
48 -71 48 -151 0 -86 -22 -141 -59 -146 -77 -11 -105 35 -99 169 3 76 6 91 27
113 26 28 50 32 83 15z"/>
</g>
</svg>
