<?xml version="1.0" standalone="no"?>
<!DOCTYPE svg PUBLIC "-//W3C//DTD SVG 20010904//EN"
 "http://www.w3.org/TR/2001/REC-SVG-20010904/DTD/svg10.dtd">
<svg version="1.0" xmlns="http://www.w3.org/2000/svg"
 width="1000.000000pt" height="199.000000pt" viewBox="0 0 1000.000000 199.000000"
 preserveAspectRatio="xMidYMid meet">

<g transform="translate(0.000000,199.000000) scale(0.100000,-0.100000)"
fill="#000000" stroke="none">
<path d="M20 995 l0 -975 970 0 970 0 0 975 0 975 -970 0 -970 0 0 -975z
m1600 5 l0 -60 -630 0 -630 0 0 60 0 60 630 0 630 0 0 -60z"/>
<path d="M3880 1959 c-87 -14 -210 -80 -266 -142 -149 -165 -145 -416 10 -570
93 -93 205 -137 351 -137 146 0 261 44 352 136 185 185 148 500 -75 643 -98
62 -251 91 -372 70z m242 -162 c62 -28 110 -72 141 -131 18 -33 22 -57 22
-131 0 -101 -12 -133 -74 -198 -150 -159 -457 -107 -530 89 -63 168 25 342
199 391 66 19 178 10 242 -20z"/>
<path d="M4978 1960 c-179 -32 -314 -137 -365 -283 -27 -77 -24 -224 6 -300
47 -119 185 -228 328 -258 140 -29 340 5 455 77 l48 30 -37 54 c-20 30 -37 56
-38 58 -2 2 -27 -10 -57 -27 -123 -69 -301 -81 -411 -27 -108 53 -164 151
-155 275 6 82 33 136 93 189 61 54 129 76 230 76 93 0 170 -21 238 -64 26 -16
49 -30 51 -30 9 0 76 112 71 120 -11 18 -112 69 -177 88 -77 24 -212 35 -280
22z"/>
<path d="M2800 1949 c-98 -19 -180 -70 -211 -131 -17 -33 -20 -55 -17 -105 8
-131 86 -179 378 -232 187 -35 246 -57 256 -97 20 -78 -50 -125 -196 -132
-122 -6 -216 10 -316 54 -43 19 -82 34 -87 34 -6 0 -57 -103 -57 -116 0 -10
129 -67 197 -86 105 -30 317 -32 408 -5 157 48 239 161 206 285 -31 112 -132
167 -396 212 -66 12 -142 28 -168 36 -83 27 -100 90 -35 129 29 18 50 20 173
20 124 -1 149 -4 220 -28 44 -14 84 -28 90 -29 8 -3 62 93 64 113 1 11 -141
60 -217 75 -81 15 -221 17 -292 3z"/>
<path d="M5620 1535 l0 -405 75 0 75 0 0 405 0 405 -75 0 -75 0 0 -405z"/>
<path d="M5990 1535 l0 -405 380 0 380 0 0 65 0 65 -305 0 -305 0 0 110 0 110
230 0 230 0 0 65 0 65 -230 0 -230 0 0 100 0 100 295 0 295 0 0 65 0 65 -370
0 -370 0 0 -405z"/>
<path d="M6840 1875 l0 -65 165 0 165 0 0 -340 0 -340 75 0 75 0 0 340 0 340
165 0 165 0 0 65 0 65 -405 0 -405 0 0 -65z"/>
<path d="M7770 1535 l0 -405 380 0 380 0 0 65 0 65 -305 0 -305 0 0 110 0 110
230 0 230 0 0 65 0 65 -230 0 -230 0 0 100 0 100 295 0 295 0 0 65 0 65 -370
0 -370 0 0 -405z"/>
<path d="M2861 864 c-134 -36 -258 -139 -302 -251 -19 -47 -23 -77 -24 -164 0
-102 1 -107 38 -181 87 -176 276 -264 512 -237 88 10 170 34 253 76 l52 26 0
159 0 158 -75 0 -75 0 0 -119 0 -119 -27 -10 c-105 -41 -254 -46 -345 -12 -64
24 -125 77 -153 135 -28 57 -32 173 -10 233 24 62 85 125 148 153 109 47 278
34 394 -31 29 -17 54 -30 56 -30 2 0 21 25 41 56 42 63 44 59 -46 109 -109 60
-312 83 -437 49z"/>
<path d="M3590 455 l0 -405 380 0 380 0 0 65 0 65 -305 0 -305 0 0 105 0 105
225 0 225 0 0 70 0 70 -225 0 -225 0 0 100 0 100 295 0 296 0 -3 63 -3 62
-367 3 -368 2 0 -405z"/>
<path d="M4500 455 l0 -405 76 0 77 0 -5 300 c-2 165 -2 300 1 300 3 -1 121
-135 261 -300 l255 -299 78 0 77 -1 0 405 0 405 -71 0 -71 0 4 -304 c3 -281 2
-303 -13 -290 -9 8 -129 145 -265 304 l-249 289 -77 1 -78 0 0 -405z"/>
<path d="M5540 455 l0 -405 380 0 380 0 0 65 0 65 -305 0 -305 0 0 105 0 105
228 2 227 3 0 65 0 65 -227 3 -228 2 0 100 0 100 295 0 295 0 0 65 0 65 -370
0 -370 0 0 -405z"/>
<path d="M6460 456 l0 -406 75 0 74 0 3 148 3 147 120 0 119 0 115 -147 114
-148 88 0 c49 0 89 3 89 6 0 4 -51 71 -114 149 l-114 142 55 17 c107 34 172
121 173 230 0 116 -46 194 -142 237 -52 23 -61 24 -355 27 l-303 3 0 -405z
m607 244 c63 -38 63 -147 0 -194 -26 -20 -43 -21 -243 -24 l-214 -3 0 120 0
121 213 0 c193 0 215 -2 244 -20z"/>
<path d="M7600 608 c-67 -139 -156 -322 -196 -405 l-73 -153 80 0 80 0 45 95
44 95 223 0 222 -1 44 -94 44 -95 79 0 c43 0 78 2 78 3 0 2 -87 183 -194 403
l-194 399 -79 3 -79 3 -124 -253z m346 -215 l6 -23 -151 0 c-83 0 -151 4 -151
9 0 5 34 80 76 167 l76 159 69 -145 c39 -80 72 -155 75 -167z"/>
<path d="M8390 455 l0 -405 345 0 345 0 0 65 0 65 -270 0 -270 0 0 340 0 340
-75 0 -75 0 0 -405z"/>
<path d="M9180 455 l0 -405 385 0 385 0 0 65 0 65 -310 0 -310 0 0 105 0 105
230 0 230 0 0 70 0 70 -230 0 -231 0 3 98 3 97 293 3 292 2 0 65 0 65 -370 0
-370 0 0 -405z"/>
</g>
</svg>
