<?xml version="1.0" encoding="UTF-8"?>
<svg version="1.1" xmlns="http://www.w3.org/2000/svg" width="512" height="333">
<path d="M0 0 C0.79390137 0.41137207 1.58780273 0.82274414 2.40576172 1.24658203 C40.3840859 21.19420084 74.54456051 53.51690126 87.8125 95.125 C96.65700768 124.61605898 92.33499131 155.39222217 78.375 182.5 C62.05231527 212.73442604 34.34784294 235.20041701 5 252 C4.25943359 252.42522949 3.51886719 252.85045898 2.75585938 253.28857422 C-73.83789765 296.71062348 -175.43524118 303.18698694 -259.60449219 279.98095703 C-280.43531599 273.96296379 -300.63803694 266.84814562 -320 257 C-320.81984375 256.58395508 -321.6396875 256.16791016 -322.484375 255.73925781 C-361.52294421 235.62992947 -398.01995422 203.08537707 -411.74609375 160.29296875 C-420.54612691 131.04521809 -416.78193151 100.23369759 -402.75 73.3125 C-395.88475213 60.62315871 -387.39071653 49.75539702 -377.36816406 39.41943359 C-376.17225121 38.17870602 -375.00181297 36.91352567 -373.8359375 35.64453125 C-366.72601884 28.10911553 -358.34250489 22.08548372 -350 16 C-349.40509766 15.56042969 -348.81019531 15.12085938 -348.19726562 14.66796875 C-307.94788636 -14.78279657 -256.78683995 -28.68965692 -208 -35 C-207.13101074 -35.11859375 -206.26202148 -35.2371875 -205.36669922 -35.359375 C-136.17257275 -44.45709619 -61.8110339 -32.04063907 0 0 Z M-301.73046875 21.3359375 C-306.13085561 26.50127974 -308.86232195 31.92047936 -308.4453125 38.8984375 C-306.49476498 48.10365299 -300.7410761 54.62719983 -293.29296875 59.92578125 C-273.15931772 72.96833506 -245.24503043 84 -221 84 C-220.8548999 83.23147705 -220.7097998 82.4629541 -220.56030273 81.67114258 C-215.14464176 53.35653955 -208.4592825 23.32310143 -189 1 C-188.44054687 0.319375 -187.88109375 -0.36125 -187.3046875 -1.0625 C-181.21822608 -7.8840413 -173.22570934 -12.12104474 -164.05664062 -12.71337891 C-153.30815147 -12.90476938 -145.17395711 -9.25151647 -137.3125 -2 C-115.80868935 21.28932561 -108.69185072 53.85310158 -103 84 C-75.34550077 80.4026254 -40.35043338 73.05729929 -21 51 C-17.68956354 46.17321849 -15.07247263 41.04732567 -15.51953125 35.06640625 C-17.88774343 24.88116849 -24.47453833 18.21371967 -32.875 12.5625 C-97.37089039 -26.57378179 -230.62407344 -30.85101544 -301.73046875 21.3359375 Z M-180.21484375 36.41015625 C-190.35602495 51.12263576 -195.92033606 69.35871276 -198 87 C-174.84067906 90.40748114 -149.15795177 90.2609049 -126 87 C-129.63425291 65.57822354 -135.08366046 40.41824358 -153.875 26.9375 C-165.13158284 23.56052515 -173.03179897 27.62360717 -180.21484375 36.41015625 Z M-352 48 C-370.77357357 70.60491512 -381.50521243 100.75732763 -378.79785156 130.19824219 C-374.72849932 166.2695947 -355.07030363 197.39743727 -327 220 C-286.22641024 251.96761946 -234.70542552 269.93178298 -183 272 C-183.73605469 271.28585937 -184.47210938 270.57171875 -185.23046875 269.8359375 C-221.11451374 233.09148523 -222.9625791 174.17019011 -225 126 C-225.60658447 125.87995605 -226.21316895 125.75991211 -226.83813477 125.63623047 C-316.27170311 107.80487285 -316.27170311 107.80487285 -341.1328125 75.203125 C-346.93901936 66.40878658 -349.38373397 58.34410258 -351 48 C-351.33 48 -351.66 48 -352 48 Z M27 48 C26.85304688 48.95519531 26.70609375 49.91039063 26.5546875 50.89453125 C23.62638389 67.77435034 15.68011586 79.76159953 1.6875 90 C-28.22349062 110.82636015 -63.81198667 119.03624122 -99 126 C-99.04487549 127.060979 -99.08975098 128.12195801 -99.13598633 129.21508789 C-101.2340195 177.87927396 -104.36140117 235.36140117 -141 272 C-84.40920326 271.01968699 -27.67766931 247.84538826 14 210 C14.77085937 209.30261719 15.54171875 208.60523438 16.3359375 207.88671875 C40.00885369 185.32498026 54.40535749 153.8693329 55.3125 121.25 C54.86279008 96.37542001 46.35890541 68.00333501 28.765625 49.671875 C28.18296875 49.12015625 27.6003125 48.5684375 27 48 Z M-200 129 C-200.1940444 138.57036921 -199.84362758 147.70695932 -198.375 157.1875 C-198.19678711 158.34805908 -198.01857422 159.50861816 -197.83496094 160.7043457 C-194.62856386 180.40252879 -188.96300163 203.53293162 -173 217 C-168.47867573 219.49472059 -164.40469462 221.6667527 -159.125 220.6328125 C-148.88532204 217.3929144 -142.81640408 209.16912384 -137.97021484 199.97949219 C-127.16462621 177.93326354 -123.78721897 153.28068009 -124 129 C-125.74796875 129.05329468 -125.74796875 129.05329468 -127.53125 129.10766602 C-151.73736969 129.82894715 -175.80498165 130.16332349 -200 129 Z " fill="#27272F" transform="translate(418,39)"/>
</svg>
