<?xml version="1.0" standalone="no"?>
<!DOCTYPE svg PUBLIC "-//W3C//DTD SVG 20010904//EN"
 "http://www.w3.org/TR/2001/REC-SVG-20010904/DTD/svg10.dtd">
<svg version="1.0" xmlns="http://www.w3.org/2000/svg"
 width="229.000000pt" height="200.000000pt" viewBox="0 0 229.000000 200.000000"
 preserveAspectRatio="xMidYMid meet">

<g transform="translate(0.000000,200.000000) scale(0.100000,-0.100000)"
fill="#000000" stroke="none">
<path d="M885 1949 c-196 -28 -348 -70 -540 -147 -154 -62 -220 -108 -250
-177 -5 -11 -12 -134 -15 -272 l-5 -253 -29 15 c-15 8 -30 15 -32 15 -2 0 -4
-27 -4 -60 0 -57 13 -93 56 -155 11 -15 14 -71 14 -252 0 -259 7 -313 51 -366
57 -69 342 -185 584 -236 143 -31 417 -58 397 -40 -7 7 -200 64 -422 126 -268
73 -473 159 -514 216 -19 26 -21 45 -24 233 -2 124 0 204 6 204 5 0 30 -16 56
-36 43 -32 153 -92 212 -114 19 -8 23 -15 19 -32 -3 -14 3 -36 14 -55 40 -64
153 -67 205 -6 l22 26 165 -2 c201 -3 378 17 644 70 114 23 418 97 548 133
l87 24 0 -213 c0 -202 -1 -214 -21 -240 -20 -25 -124 -79 -229 -119 -37 -14
-48 -24 -63 -59 -9 -23 -17 -45 -17 -49 0 -10 126 38 233 89 164 79 177 108
177 409 l0 202 35 12 35 12 0 145 0 146 -35 -6 -35 -6 0 207 c-1 224 -8 277
-46 334 -58 90 -443 231 -744 273 -115 16 -434 18 -535 4z m480 -79 c133 -16
275 -47 409 -91 154 -50 320 -129 338 -160 9 -18 14 -89 18 -262 l5 -237 -30
-5 c-529 -85 -960 -128 -1300 -128 -278 0 -396 11 -565 56 l-85 22 0 260 c0
194 3 266 13 283 50 87 510 243 782 265 102 8 331 6 415 -3z m405 -870 c0 -22
5 -30 17 -30 13 0 14 -3 5 -12 -7 -7 -12 -40 -12 -80 0 -54 3 -68 15 -68 19 0
19 -14 -1 -34 -19 -20 -48 -20 -64 -1 -10 12 -15 10 -35 -13 -20 -23 -31 -27
-77 -27 -29 0 -59 -5 -66 -12 -17 -16 -64 -17 -80 -1 -7 7 -12 37 -12 68 0 62
-6 76 -27 59 -9 -8 -13 -36 -13 -85 0 -66 -2 -74 -19 -74 -11 0 -26 -3 -34 -6
-13 -5 -14 6 -10 75 5 69 3 81 -10 81 -20 0 -27 -21 -27 -78 0 -75 -8 -92 -41
-92 l-28 0 6 98 c3 53 6 98 7 99 1 1 19 4 41 6 22 3 50 9 63 12 12 4 28 2 36
-4 10 -9 16 -8 26 4 15 18 61 20 78 3 7 -7 12 -38 12 -69 0 -32 4 -60 9 -63
14 -9 34 22 28 44 -9 33 14 99 41 121 16 12 37 19 56 17 28 -3 31 -7 34 -39 3
-31 -2 -41 -32 -67 -23 -20 -34 -37 -30 -47 18 -47 94 21 93 83 0 20 -4 45 -8
55 -13 34 0 88 23 97 33 14 36 12 36 -20z m-1088 -72 c17 -13 21 -28 19 -60
-1 -12 -9 -18 -26 -18 -22 0 -25 4 -23 32 4 46 -24 48 -66 6 -38 -38 -54 -95
-40 -137 7 -20 17 -27 41 -29 28 -3 33 0 39 25 13 61 15 63 45 63 16 0 29 -3
29 -7 0 -5 -11 -52 -24 -107 -27 -113 -44 -136 -107 -143 -53 -6 -82 18 -77
63 6 55 86 72 96 21 2 -12 -4 -15 -25 -14 -22 2 -29 -3 -31 -20 -3 -19 1 -23
22 -23 29 0 41 18 51 74 7 36 6 38 -15 31 -12 -4 -37 -4 -56 -1 -88 17 -85
173 5 233 38 26 116 31 143 11z m566 -94 c4 -26 -24 -40 -45 -23 -21 18 -27 5
-38 -79 l-10 -77 -35 -1 c-19 0 -46 -4 -59 -8 -14 -5 -33 -3 -47 5 -19 10 -27
10 -36 1 -7 -7 -27 -12 -45 -12 -26 0 -34 5 -39 25 -3 14 -3 41 0 60 6 28 4
34 -8 29 -9 -3 -18 -21 -22 -40 -13 -69 -100 -108 -144 -64 -41 41 -7 150 54
175 42 18 81 7 91 -24 9 -31 32 -25 40 9 6 25 11 30 36 30 l30 0 -7 -62 c-10
-92 -10 -93 6 -93 14 0 20 18 35 117 4 25 12 39 26 43 35 11 42 -7 32 -80 -8
-54 -7 -68 4 -72 8 -3 16 -3 19 0 10 9 24 80 24 119 0 41 6 43 90 43 38 0 45
-3 48 -21z"/>
<path d="M627 1589 c-88 -21 -168 -87 -182 -151 -8 -35 17 -78 45 -78 17 0 20
7 20 45 0 26 7 59 15 75 16 30 75 79 75 61 0 -6 -20 -103 -45 -217 -25 -113
-45 -212 -45 -220 0 -10 13 -14 44 -14 53 0 44 -20 91 205 19 94 42 197 50
229 7 33 12 64 9 68 -6 10 -27 9 -77 -3z"/>
<path d="M1220 1540 c-16 -33 -30 -62 -30 -65 0 -3 10 -5 23 -5 17 0 32 13 55
48 48 75 49 82 13 82 -28 0 -34 -6 -61 -60z"/>
<path d="M978 1553 c-25 -4 -28 -11 -43 -78 -15 -68 -18 -73 -33 -59 -22 22
-84 13 -126 -20 -66 -50 -106 -192 -76 -265 23 -56 104 -65 150 -16 l23 24 19
-24 c14 -18 29 -25 55 -25 36 0 93 27 93 44 0 5 13 -2 28 -17 15 -15 41 -29
58 -33 43 -8 109 12 148 46 l33 29 11 -24 c28 -60 100 -69 153 -19 27 26 27
26 34 4 15 -47 115 -47 149 1 l14 21 7 -22 c14 -43 104 -50 125 -10 15 28 12
40 -10 40 -28 0 -26 24 16 228 20 95 33 176 30 179 -3 3 -25 2 -48 -3 l-43 -9
-33 -155 c-43 -205 -51 -230 -79 -243 -44 -20 -48 1 -24 125 12 62 25 123 28
136 5 20 2 22 -40 22 -25 0 -49 -5 -52 -10 -4 -7 -12 -7 -25 0 -80 43 -184
-50 -209 -186 -5 -25 -10 -46 -12 -48 -2 -1 -17 -12 -33 -24 -18 -14 -43 -22
-68 -22 -32 0 -40 4 -48 26 -17 43 -12 53 31 64 63 17 110 66 116 121 7 57
-12 79 -68 79 -70 0 -122 -39 -158 -120 -11 -25 -21 -61 -21 -80 0 -46 -24
-80 -56 -80 -17 0 -24 5 -24 20 0 18 64 330 76 373 6 18 -6 19 -68 10z m270
-177 c9 -46 -39 -116 -79 -116 -18 0 -18 2 1 51 30 79 69 112 78 65z m-350 5
c11 -7 11 -24 -3 -97 -21 -109 -36 -136 -73 -132 -25 3 -27 7 -30 55 -3 60 28
145 62 168 24 17 26 18 44 6z m628 -6 c3 -8 -4 -57 -16 -110 -18 -80 -26 -98
-45 -107 -41 -18 -55 -5 -55 54 0 59 36 149 67 167 25 15 43 14 49 -4z"/>
<path d="M1631 902 c-15 -28 -14 -65 1 -60 17 6 32 58 20 70 -7 7 -14 4 -21
-10z"/>
<path d="M794 785 c-23 -36 -32 -115 -12 -115 26 0 40 28 43 80 3 59 -8 71
-31 35z"/>
<path d="M510 420 c0 -33 4 -60 10 -60 6 0 10 27 10 60 0 33 -4 60 -10 60 -6
0 -10 -27 -10 -60z"/>
<path d="M610 465 c0 -9 -9 -15 -25 -15 -18 0 -26 -7 -31 -27 -9 -34 6 -57 40
-61 26 -3 26 -2 26 57 0 34 -2 61 -5 61 -3 0 -5 -7 -5 -15z m-5 -61 c0 -19 -5
-29 -15 -29 -16 0 -25 28 -16 51 10 25 31 10 31 -22z"/>
<path d="M843 420 c0 -36 2 -50 4 -32 2 17 2 47 0 65 -2 17 -4 3 -4 -33z"/>
<path d="M1420 420 c0 -33 4 -60 10 -60 6 0 10 11 10 24 0 14 4 27 9 30 18 11
41 -6 41 -30 0 -13 5 -24 10 -24 6 0 10 27 10 60 0 33 -4 60 -10 60 -5 0 -10
-11 -10 -25 0 -20 -5 -25 -25 -25 -20 0 -25 5 -25 25 0 14 -4 25 -10 25 -6 0
-10 -27 -10 -60z"/>
<path d="M1630 420 c0 -33 4 -60 10 -60 6 0 10 27 10 60 0 33 -4 60 -10 60 -6
0 -10 -27 -10 -60z"/>
<path d="M1768 435 c-2 -25 0 -53 4 -63 3 -9 7 11 7 46 1 72 -5 82 -11 17z"/>
<path d="M1312 455 c-7 -8 -8 -15 -3 -15 5 0 11 -17 13 -37 2 -29 8 -38 23
-40 11 -2 14 0 8 3 -16 7 -17 74 -2 74 6 0 4 7 -5 15 -18 18 -18 18 -34 0z"/>
<path d="M657 444 c-9 -9 -9 -47 -1 -68 4 -10 18 -16 36 -16 16 0 27 4 23 10
-3 5 -12 7 -19 4 -7 -3 -19 2 -26 11 -11 13 -8 15 19 15 28 0 32 3 29 23 -2
15 -11 23 -28 25 -14 2 -29 0 -33 -4z m43 -25 c0 -5 -7 -9 -15 -9 -15 0 -20
12 -9 23 8 8 24 -1 24 -14z"/>
<path d="M768 443 c12 -2 22 -11 22 -18 0 -7 -10 -15 -22 -17 -15 -2 -23 -10
-23 -23 0 -15 8 -21 33 -23 l33 -3 -3 43 c-3 40 -5 43 -33 45 -20 1 -23 0 -7
-4z m22 -59 c0 -9 -5 -14 -12 -12 -18 6 -21 28 -4 28 9 0 16 -7 16 -16z"/>
<path d="M884 437 c-3 -9 -4 -28 -2 -44 3 -24 8 -28 38 -31 19 -2 31 0 27 5
-5 4 -16 8 -24 8 -9 0 -18 6 -20 13 -3 7 5 12 22 12 22 0 26 4 23 23 -4 27
-54 38 -64 14z m46 -18 c0 -5 -7 -9 -15 -9 -15 0 -20 12 -9 23 8 8 24 -1 24
-14z"/>
<path d="M980 404 c0 -53 8 -55 14 -3 3 34 30 49 32 19 6 -62 7 -64 13 -26 8
51 31 61 31 12 0 -19 5 -38 11 -41 7 -5 9 8 7 37 l-3 43 -52 3 -53 3 0 -47z"/>
<path d="M1121 428 c-12 -34 2 -63 33 -66 14 -2 26 1 26 7 0 6 -6 8 -13 5 -8
-3 -20 2 -27 11 -11 13 -8 15 19 15 32 0 41 16 19 38 -19 19 -48 14 -57 -10z
m47 -6 c2 -7 -6 -12 -17 -12 -21 0 -27 11 -14 24 9 9 26 2 31 -12z"/>
<path d="M1210 405 c0 -54 18 -60 22 -7 2 25 8 37 18 37 10 0 16 -12 18 -37 4
-45 22 -51 22 -9 0 49 -9 61 -46 61 -34 0 -34 -1 -34 -45z"/>
<path d="M1558 442 c28 -8 30 -26 5 -31 -43 -8 -36 -51 9 -51 28 0 29 1 26 43
-3 39 -5 42 -33 44 -25 2 -26 1 -7 -5z m30 -54 c-3 -7 -11 -13 -18 -13 -7 0
-15 6 -17 13 -3 7 4 12 17 12 13 0 20 -5 18 -12z"/>
<path d="M1698 443 c12 -2 22 -11 22 -18 0 -7 -10 -15 -22 -17 -15 -2 -23 -10
-23 -23 0 -15 8 -21 33 -23 l33 -3 -3 43 c-3 40 -5 43 -33 45 -20 1 -23 0 -7
-4z m22 -58 c0 -8 -7 -15 -15 -15 -8 0 -15 7 -15 15 0 8 7 15 15 15 8 0 15 -7
15 -15z"/>
</g>
</svg>
