<?xml version="1.0" standalone="no"?>
<!DOCTYPE svg PUBLIC "-//W3C//DTD SVG 20010904//EN"
 "http://www.w3.org/TR/2001/REC-SVG-20010904/DTD/svg10.dtd">
<svg version="1.0" xmlns="http://www.w3.org/2000/svg"
 width="500.000000pt" height="500.000000pt" viewBox="0 0 500.000000 500.000000"
 preserveAspectRatio="xMidYMid meet">

<g transform="translate(0.000000,500.000000) scale(0.100000,-0.100000)"
fill="#000000" stroke="none">
<path d="M375 1836 c-88 -28 -146 -74 -176 -140 -34 -75 -19 -177 34 -234 32
-35 89 -61 199 -93 134 -38 158 -52 158 -89 0 -37 -23 -50 -88 -50 -60 0 -148
29 -226 76 -32 19 -60 33 -61 32 -8 -9 -86 -171 -83 -173 28 -25 120 -71 179
-90 150 -47 289 -43 399 13 97 49 148 159 121 260 -25 94 -84 138 -258 191
-116 36 -165 68 -147 98 29 47 125 37 264 -28 35 -17 66 -26 68 -20 2 5 21 46
43 92 22 45 38 83 36 85 -12 12 -130 57 -181 69 -74 18 -226 18 -281 1z"/>
<path d="M1195 1837 c-193 -49 -315 -200 -315 -388 0 -225 161 -391 395 -406
195 -13 359 76 433 235 24 51 27 69 27 167 0 105 -2 114 -33 177 -42 87 -118
156 -209 193 -81 33 -216 43 -298 22z m201 -207 c141 -69 137 -310 -6 -375
-116 -52 -251 29 -266 162 -20 164 130 281 272 213z"/>
<path d="M2942 1839 c-174 -34 -315 -187 -329 -358 -17 -204 107 -375 307
-427 121 -31 309 -1 423 66 l37 22 0 159 0 159 -105 0 -105 0 0 -99 0 -99 -31
-11 c-54 -19 -139 -13 -184 12 -137 78 -134 296 5 367 74 38 183 22 270 -40
l28 -20 66 80 66 79 -33 25 c-101 77 -275 113 -415 85z"/>
<path d="M1830 1446 l0 -396 120 0 120 0 0 105 0 105 63 0 63 0 49 -105 48
-105 134 0 c73 0 133 2 133 4 0 2 -34 59 -76 126 l-76 122 42 41 c72 69 102
174 80 280 -17 84 -56 137 -131 177 l-64 35 -252 3 -253 4 0 -396z m451 185
c22 -23 29 -39 29 -70 0 -88 -30 -112 -152 -119 l-88 -5 0 112 0 111 91 0 c87
0 92 -1 120 -29z"/>
<path d="M3490 1445 l0 -395 330 0 330 0 0 90 0 90 -210 0 -210 0 0 215 0 215
205 0 205 0 0 90 0 90 -325 0 -325 0 0 -395z"/>
<path d="M4270 1445 l0 -395 285 0 286 0 -3 98 -3 97 -167 3 -168 2 0 295 0
295 -115 0 -115 0 0 -395z"/>
<path d="M3840 1450 l0 -90 135 0 136 0 -3 88 -3 87 -132 3 -133 3 0 -91z"/>
<path d="M2670 758 c-70 -47 -91 -146 -47 -222 70 -123 255 -88 274 52 l6 42
-67 0 c-52 0 -66 -3 -66 -15 0 -11 12 -15 50 -15 28 0 50 -2 50 -5 0 -3 -6
-21 -14 -39 -42 -101 -187 -84 -216 25 -30 112 64 207 164 165 24 -10 38 -11
42 -5 12 20 -16 33 -79 37 -52 3 -67 0 -97 -20z"/>
<path d="M3040 626 c0 -132 2 -156 15 -156 12 0 15 13 15 60 l0 60 48 0 c46 0
47 -1 85 -59 37 -57 61 -79 71 -62 3 4 -12 33 -33 65 l-38 57 28 29 c39 39 40
96 3 131 -22 21 -37 24 -110 28 l-84 3 0 -156z m170 104 c23 -23 26 -58 6 -85
-10 -14 -30 -20 -80 -23 l-66 -4 0 59 c0 33 3 63 7 66 3 4 30 7 60 7 40 0 58
-5 73 -20z"/>
<path d="M3469 757 c-66 -43 -89 -144 -51 -217 55 -104 234 -100 278 6 48 116
-23 234 -141 234 -37 0 -62 -6 -86 -23z m161 -26 c61 -43 64 -149 5 -208 -87
-87 -222 -1 -200 127 8 45 51 96 88 103 34 7 79 -3 107 -22z"/>
<path d="M3860 657 c0 -137 8 -159 66 -183 47 -20 93 -17 132 6 49 30 62 72
62 195 0 98 -1 105 -20 105 -19 0 -20 -7 -20 -120 0 -115 -1 -122 -25 -145
-41 -42 -131 -29 -154 22 -6 13 -11 73 -11 133 0 91 -3 110 -15 110 -13 0 -15
-20 -15 -123z"/>
<path d="M4280 625 c0 -129 2 -155 15 -155 10 0 15 15 17 58 l3 57 66 5 c46 3
73 11 87 24 46 40 35 124 -19 151 -17 9 -56 15 -99 15 l-70 0 0 -155z m162
108 c25 -22 24 -77 -3 -104 -16 -16 -30 -19 -72 -17 l-52 3 -3 68 -3 67 57 0
c39 0 63 -5 76 -17z"/>
<path d="M4640 626 l0 -155 33 -3 c55 -5 167 3 167 13 0 5 -38 9 -85 9 l-85 0
0 60 0 60 75 0 c60 0 75 3 75 15 0 12 -15 15 -75 15 l-75 0 0 55 0 55 80 0
c64 0 80 3 80 15 0 12 -17 15 -95 15 l-95 0 0 -154z"/>
<path d="M130 625 c0 -13 137 -15 1175 -15 1038 0 1175 2 1175 15 0 13 -137
15 -1175 15 -1038 0 -1175 -2 -1175 -15z"/>
</g>
</svg>
