<?xml version="1.0" standalone="no"?>
<!DOCTYPE svg PUBLIC "-//W3C//DTD SVG 20010904//EN"
 "http://www.w3.org/TR/2001/REC-SVG-20010904/DTD/svg10.dtd">
<svg version="1.0" xmlns="http://www.w3.org/2000/svg"
 width="200.000000pt" height="200.000000pt" viewBox="0 0 200.000000 200.000000"
 preserveAspectRatio="xMidYMid meet">

<g transform="translate(0.000000,200.000000) scale(0.100000,-0.100000)"
fill="#000000" stroke="none">
<path d="M151 1430 c-49 -56 -78 -97 -74 -106 4 -12 43 -14 224 -14 l218 0 78
91 c43 49 78 96 78 102 0 9 -58 13 -222 15 l-222 2 -80 -90z"/>
<path d="M697 1429 c-49 -55 -77 -96 -73 -104 4 -13 42 -15 225 -15 l219 0 81
96 c45 52 79 100 76 105 -4 5 -103 9 -228 9 l-222 -1 -78 -90z"/>
<path d="M920 1190 c0 -23 -4 -30 -20 -30 -15 0 -20 -7 -20 -25 0 -18 5 -25
20 -25 17 0 20 -8 22 -92 3 -90 3 -92 30 -99 38 -10 68 0 68 22 0 12 -9 19
-27 21 -27 3 -28 5 -31 76 l-3 72 31 0 c25 0 30 4 30 25 0 21 -5 25 -30 25
-27 0 -30 3 -30 30 0 23 -4 30 -20 30 -16 0 -20 -7 -20 -30z"/>
<path d="M129 1145 c-37 -20 -63 -78 -56 -128 10 -70 82 -120 150 -103 24 6
77 52 77 67 0 14 -44 6 -69 -13 -13 -10 -32 -18 -43 -18 -20 0 -68 42 -68 60
0 6 36 10 95 10 90 0 95 1 95 21 0 36 -31 89 -61 104 -35 19 -86 19 -120 0z
m111 -45 c38 -38 27 -50 -47 -47 -53 3 -67 6 -65 18 11 48 76 65 112 29z"/>
<path d="M414 1150 c-12 -4 -31 -21 -44 -37 -18 -24 -21 -37 -18 -87 4 -49 9
-63 32 -82 57 -50 134 -42 174 16 l24 35 -23 3 c-13 2 -28 -3 -33 -10 -46 -62
-126 -31 -126 48 0 34 5 47 26 63 35 28 60 26 88 -4 13 -14 30 -25 39 -25 31
0 28 21 -6 55 -28 28 -42 35 -73 34 -22 0 -49 -4 -60 -9z"/>
<path d="M662 1135 c-95 -80 -35 -235 86 -222 77 8 123 80 102 157 -14 53 -50
82 -108 88 -41 4 -52 0 -80 -23z m126 -43 c50 -66 -6 -162 -78 -132 -43 18
-60 67 -39 114 21 46 88 56 117 18z"/>
<path d="M1109 1145 c-30 -16 -59 -70 -59 -110 0 -117 147 -168 217 -76 25 34
-15 42 -54 11 -14 -11 -34 -20 -45 -20 -20 0 -68 42 -68 60 0 6 36 10 95 10
90 0 95 1 95 21 0 36 -31 89 -61 104 -35 19 -86 19 -120 0z m110 -46 c12 -11
20 -26 18 -32 -4 -13 -124 -19 -132 -7 -3 4 5 19 16 34 25 32 66 34 98 5z"/>
<path d="M1340 1035 c0 -69 4 -125 9 -125 36 0 41 12 41 95 0 90 6 101 55 107
19 2 31 9 33 21 5 24 -25 33 -62 19 -20 -8 -32 -9 -34 -2 -2 5 -12 10 -23 10
-18 0 -19 -8 -19 -125z"/>
<path d="M1514 1147 c-2 -7 -3 -62 -2 -122 3 -103 4 -108 26 -111 21 -4 22 -1
22 84 0 98 7 112 57 112 29 0 33 3 33 25 0 20 -5 25 -26 25 -14 0 -34 -5 -44
-10 -13 -7 -21 -7 -25 0 -9 14 -35 12 -41 -3z"/>
<path d="M1711 1134 c-82 -69 -47 -207 56 -221 45 -6 96 15 113 46 16 31 -5
35 -49 9 -47 -27 -88 -18 -108 22 l-12 25 94 3 c94 3 95 3 95 28 0 94 -117
149 -189 88z m120 -35 c32 -32 19 -44 -49 -45 -54 -2 -62 1 -62 17 0 22 37 49
67 49 13 0 32 -9 44 -21z"/>
<path d="M150 797 c-41 -14 -80 -68 -80 -109 0 -41 24 -93 51 -112 14 -9 43
-16 72 -16 42 0 53 5 80 32 32 33 32 33 9 36 -13 2 -32 -4 -41 -12 -25 -22
-77 -20 -101 4 -11 11 -20 24 -20 30 0 5 42 11 93 12 86 3 92 4 95 25 2 12 -4
35 -13 52 -28 56 -86 79 -145 58z m94 -59 c9 -12 16 -26 16 -30 0 -5 -31 -8
-70 -8 -38 0 -70 3 -70 8 0 4 7 18 16 30 11 16 25 22 54 22 29 0 43 -6 54 -22z"/>
<path d="M438 796 c-16 -8 -30 -11 -33 -5 -4 5 -15 9 -26 9 -18 0 -19 -8 -19
-120 l0 -120 25 0 c25 0 25 1 25 84 0 95 11 116 60 116 45 0 60 -31 60 -122 0
-77 0 -78 26 -78 l26 0 -4 95 c-3 85 -7 98 -28 120 -32 31 -77 40 -112 21z"/>
<path d="M701 797 c-47 -16 -74 -56 -75 -110 -2 -81 43 -127 123 -127 28 0 48
8 70 26 17 14 31 30 31 35 0 15 -47 10 -60 -6 -21 -26 -76 -19 -100 13 l-22
27 96 3 96 3 0 33 c0 41 -32 84 -76 102 -39 16 -39 16 -83 1z m91 -54 c36 -32
23 -43 -52 -43 -70 0 -71 0 -59 23 7 12 17 25 23 29 20 13 69 8 88 -9z"/>
<path d="M1124 794 c-64 -32 -80 -130 -30 -183 34 -35 69 -43 118 -26 37 12
38 12 38 -12 0 -51 -16 -63 -81 -63 -57 0 -60 -1 -57 -22 2 -19 10 -24 48 -26
25 -2 62 1 82 8 49 14 58 47 58 208 l0 122 -24 0 c-13 0 -26 -5 -28 -11 -2 -6
-14 -5 -33 5 -37 20 -52 20 -91 0z m105 -60 c12 -15 21 -34 21 -44 0 -30 -39
-70 -68 -70 -33 0 -45 8 -61 38 -39 73 58 140 108 76z"/>
<path d="M910 678 l0 -118 25 0 c25 0 25 1 25 84 0 95 11 116 61 116 22 0 29
5 29 19 0 18 -7 20 -70 19 l-70 -2 0 -118z"/>
<path d="M1330 798 c0 -2 22 -59 49 -127 26 -69 46 -133 43 -143 -3 -12 -14
-18 -32 -18 -20 0 -29 -6 -33 -21 -7 -26 15 -35 62 -23 36 9 36 9 93 164 31
85 57 158 57 163 1 4 -10 7 -23 7 -20 0 -27 -11 -56 -91 -18 -50 -36 -87 -40
-82 -4 4 -21 44 -38 88 -26 69 -34 80 -56 83 -14 2 -26 2 -26 0z"/>
</g>
</svg>
