<?xml version="1.0" encoding="UTF-8"?>
<svg version="1.1" xmlns="http://www.w3.org/2000/svg" width="1280" height="345">
<path d="M0 0 C63.4501746 -0.04033135 63.4501746 -0.04033135 89.88476562 -0.04882812 C95.9359538 -0.05078614 101.98714196 -0.05280666 108.03833008 -0.05493164 C108.79679688 -0.05519539 109.55526368 -0.05545914 110.33671433 -0.05573088 C122.59768384 -0.06008572 134.85864869 -0.06797258 147.11961543 -0.0771528 C159.69326794 -0.08648894 172.26691801 -0.09205553 184.84057385 -0.09408849 C192.605465 -0.0954638 200.37034297 -0.09981482 208.13523007 -0.10791647 C214.0792637 -0.11380412 220.02329048 -0.11445906 225.96732712 -0.11310768 C228.41315734 -0.11338421 230.85898803 -0.11539194 233.30481529 -0.11920547 C236.62819141 -0.1241358 239.9515098 -0.12300074 243.27488708 -0.12025452 C244.25638416 -0.12316736 245.23788124 -0.1260802 246.24912065 -0.12908131 C247.57405585 -0.12609474 247.57405585 -0.12609474 248.92575741 -0.12304783 C249.69393164 -0.12342755 250.46210586 -0.12380727 251.2535581 -0.1241985 C253 0 253 0 254 1 C254.09632909 2.33963101 254.12371971 3.68430073 254.12304783 5.02739048 C254.1250387 5.90050562 254.12702957 6.77362076 254.12908077 7.67319393 C254.12471178 9.12751749 254.12471178 9.12751749 254.12025452 10.61122131 C254.12153854 12.14011993 254.12153854 12.14011993 254.12284851 13.6999054 C254.1245145 17.1542023 254.11896265 20.6084516 254.11352539 24.06274414 C254.11321932 26.56594307 254.1133521 29.06914208 254.11389065 31.57234097 C254.11409423 37.61772882 254.10979399 43.66309801 254.10338932 49.70848119 C254.09620602 56.69721542 254.09539549 63.68594442 254.09460449 70.67468262 C254.08934825 89.13729076 254.07538723 107.5998956 254.0625 126.0625 C254.041875 167.291875 254.02125 208.52125 254 251 C170.18 251 86.36 251 0 251 C0 168.17 0 85.34 0 0 Z " fill="#000000" transform="translate(0,47)"/>
<path d="M0 0 C9.58877082 -0.06979925 19.17745291 -0.12296221 28.76642323 -0.15543652 C33.21994372 -0.17102993 37.67328919 -0.19215126 42.12670898 -0.22631836 C46.43205653 -0.25913919 50.73723672 -0.27690046 55.04269981 -0.28463173 C56.67758502 -0.29013476 58.31246205 -0.30087976 59.94727516 -0.31719017 C74.09228646 -0.45258086 85.88282152 0.69685531 96.75 10.59375 C103.92270985 18.19682244 105.60369792 26.67374537 105.47045898 36.80981445 C105.22947112 42.57488674 104.30616502 47.16411683 101 52 C100.53722656 52.69351563 100.07445312 53.38703125 99.59765625 54.1015625 C93.89103409 61.55226234 85.5117049 64.66391053 77 68 C77.73863281 68.84820312 78.47726562 69.69640625 79.23828125 70.5703125 C85.08676484 77.32102812 90.78310222 84.15086104 96.25048828 91.21459961 C98.63985172 94.29627031 101.0838149 97.28503136 103.6875 100.1875 C106 103 106 103 106 106 C83.93145539 108.04338376 83.93145539 108.04338376 77.94824219 104.93359375 C74.77472836 102.12602387 72.89112319 98.58934859 71.00097656 94.84326172 C69.31919839 91.74632874 67.08489904 89.10691258 64.875 86.375 C64.12992188 85.41335938 63.38484375 84.45171875 62.6171875 83.4609375 C62.20823242 82.94990479 61.79927734 82.43887207 61.37792969 81.91235352 C60 80 60 80 58.44238281 77.19506836 C54.79493734 71.10529524 54.79493734 71.10529524 48.64013672 68.0234375 C44.70330026 67.69260233 40.95070102 67.68108972 37 67.8125 C30.07 67.9053125 30.07 67.9053125 23 68 C23 80.54 23 93.08 23 106 C17.5859375 106.0309375 17.5859375 106.0309375 12.0625 106.0625 C10.92304932 106.071604 9.78359863 106.08070801 8.60961914 106.09008789 C7.71879639 106.09258545 6.82797363 106.09508301 5.91015625 106.09765625 C4.53549194 106.10551147 4.53549194 106.10551147 3.13305664 106.11352539 C1 106 1 106 0 105 C-0.09535213 103.63391674 -0.1218867 102.26294545 -0.12025452 100.89353943 C-0.12162918 100.00867859 -0.12300385 99.12381775 -0.12442017 98.21214294 C-0.12082489 97.23391068 -0.11722961 96.25567841 -0.11352539 95.24780273 C-0.11367142 94.2235318 -0.11381744 93.19926086 -0.1139679 92.14395142 C-0.11326828 88.74047771 -0.10547363 85.33705796 -0.09765625 81.93359375 C-0.09579224 79.58089732 -0.09436826 77.2282005 -0.09336853 74.87550354 C-0.08954199 68.66943295 -0.07971055 62.4633856 -0.06866455 56.25732422 C-0.05845334 49.93001622 -0.05387154 43.60270448 -0.04882812 37.27539062 C-0.0380884 24.85025018 -0.02101036 12.42512702 0 0 Z M23 19 C23 28.9 23 38.8 23 49 C29.26239329 49.04604701 35.52419308 49.08583248 41.78662109 49.10986328 C43.91457109 49.11988705 46.04250744 49.13350961 48.17041016 49.15087891 C51.23864118 49.17528692 54.3066892 49.18651961 57.375 49.1953125 C58.31802979 49.20563507 59.26105957 49.21595764 60.23266602 49.22659302 C67.6289311 49.227834 74.92723078 48.68470768 81 44 C84.36180574 40.17449692 84.52241518 36.40412346 84.33984375 31.50390625 C83.77129621 27.31495253 82.70694855 25.31601197 80 22 C73.4361242 18.80523858 67.717359 18.59858889 60.5 18.70703125 C58.88557007 18.71339851 58.88557007 18.71339851 57.23852539 18.71989441 C53.8254213 18.73658975 50.41292345 18.77422557 47 18.8125 C44.67578982 18.82755863 42.35157032 18.84124497 40.02734375 18.85351562 C34.35114514 18.88390213 28.67624537 18.94264273 23 19 Z " fill="#010101" transform="translate(829,189)"/>
<path d="M0 0 C32.67 0 65.34 0 99 0 C99 6.27 99 12.54 99 19 C73.92 19 48.84 19 23 19 C23 26.59 23 34.18 23 42 C42.47 42 61.94 42 82 42 C82 47.94 82 53.88 82 60 C81 61 81 61 78.67784119 61.12025452 C77.64969803 61.11803391 76.62155487 61.11581329 75.56225586 61.11352539 C74.40112778 61.11344986 73.23999969 61.11337433 72.04368591 61.11329651 C70.14840904 61.10555458 70.14840904 61.10555458 68.21484375 61.09765625 C66.92888809 61.0962413 65.64293243 61.09482635 64.31800842 61.09336853 C60.89356557 61.08954418 57.46916491 61.07971462 54.04473877 61.06866455 C50.55261811 61.05844864 47.06049066 61.05387053 43.56835938 61.04882812 C36.71222047 61.03809226 29.8561166 61.02049614 23 61 C23 69.25 23 77.5 23 86 C49.07 86 75.14 86 102 86 C102 92.6 102 99.2 102 106 C68.34 106 34.68 106 0 106 C0 71.02 0 36.04 0 0 Z " fill="#010101" transform="translate(459,189)"/>
<path d="M0 0 C16.149375 -0.020625 32.29875 -0.04125 48.9375 -0.0625 C54.04468506 -0.071604 59.15187012 -0.08070801 64.41381836 -0.09008789 C70.63000488 -0.09460449 70.63000488 -0.09460449 73.53614807 -0.09544373 C75.57443968 -0.09698358 77.61273035 -0.10050935 79.65101624 -0.10557556 C82.73082065 -0.11285061 85.81056919 -0.1139075 88.89038086 -0.11352539 C89.80488227 -0.1171235 90.71938368 -0.12072161 91.66159725 -0.12442875 C97.88597366 -0.11402634 97.88597366 -0.11402634 99 1 C99 6.94 99 12.88 99 19 C73.59 19 48.18 19 22 19 C22 26.59 22 34.18 22 42 C41.47 42 60.94 42 81 42 C81 48.27 81 54.54 81 61 C61.53 61 42.06 61 22 61 C22 69.25 22 77.5 22 86 C48.07 86 74.14 86 101 86 C101 92.6 101 99.2 101 106 C67.67 106 34.34 106 0 106 C0 71.02 0 36.04 0 0 Z " fill="#010101" transform="translate(1179,189)"/>
<path d="M0 0 C32.67 0 65.34 0 99 0 C99 6.27 99 12.54 99 19 C73.92 19 48.84 19 23 19 C23 26.26 23 33.52 23 41 C25.62763306 40.99214478 25.62763306 40.99214478 28.30834961 40.98413086 C34.08388501 40.96803238 39.85941963 40.95652733 45.63497066 40.94818783 C49.13808885 40.94296011 52.64118285 40.9358645 56.14428711 40.92456055 C60.16780841 40.91165794 64.19130414 40.90677088 68.21484375 40.90234375 C69.47836166 40.89718246 70.74187958 40.89202118 72.04368591 40.88670349 C73.204814 40.88662796 74.36594208 40.88655243 75.56225586 40.88647461 C77.1044706 40.88314369 77.1044706 40.88314369 78.67784119 40.87974548 C81 41 81 41 82 42 C82 47.94 82 53.88 82 60 C62.53 60 43.06 60 23 60 C23 68.58 23 77.16 23 86 C49.07 86 75.14 86 102 86 C102 92.27 102 98.54 102 105 C68.34 105 34.68 105 0 105 C0 70.35 0 35.7 0 0 Z " fill="#000000" transform="translate(767,51)"/>
<path d="M0 0 C21 0 21 0 27.75 5.8125 C29.3972168 7.75683594 29.3972168 7.75683594 30.51171875 9.421875 C32.717584 12.60482924 35.07878282 15.5872591 37.5625 18.5625 C38.27535156 19.45066406 38.98820313 20.33882812 39.72265625 21.25390625 C42.21826547 24.26319147 44.83766805 27.13937022 47.5 30 C51.78960407 34.60998943 55.80411122 39.37783516 59.75390625 44.28515625 C62.0883059 47.10673495 64.51990598 49.80590712 67 52.5 C71.13977416 57.00031437 75.05671695 61.63506549 78.89453125 66.39453125 C81.23261615 69.28785709 83.61855057 72.14226068 86 75 C86 50.25 86 25.5 86 0 C93.59 0 101.18 0 109 0 C109.02254844 13.67302856 109.04091359 27.34604488 109.05181217 41.01908779 C109.05704164 47.36730576 109.06414044 53.7155104 109.07543945 60.0637207 C109.08626606 66.18448582 109.09227635 72.30523809 109.09487724 78.42601204 C109.0967319 80.76690943 109.10035329 83.10780609 109.10573006 85.44869804 C109.11293748 88.71508202 109.11399107 91.98141215 109.11352539 95.24780273 C109.11712067 96.226035 109.12071594 97.20426727 109.12442017 98.21214294 C109.1230455 99.09700378 109.12167084 99.98186462 109.12025452 100.89353943 C109.12117631 101.66692374 109.1220981 102.44030806 109.12304783 103.23712826 C109 105 109 105 108 106 C100.08264679 107.08290589 89.91698524 108.29666712 82.85546875 104.15625 C80.58150798 101.56680278 78.80203694 98.93519553 77 96 C75.54560289 94.16756465 74.06577021 92.35505933 72.5625 90.5625 C71.82128906 89.64597656 71.08007812 88.72945313 70.31640625 87.78515625 C67.15907906 83.98890956 63.81199409 80.38216642 60.46875 76.75 C57.27118704 73.18815771 54.28611657 69.47434167 51.28125 65.75 C48.93281032 62.91900422 46.49090098 60.20616402 44 57.5 C40.70668301 53.92207537 37.55348679 50.28460334 34.5 46.5 C29.86345767 40.83311493 24.92528388 35.41781227 20 30 C19.67 55.08 19.34 80.16 19 106 C12.73 106 6.46 106 0 106 C0 71.02 0 36.04 0 0 Z " fill="#010101" transform="translate(577,189)"/>
<path d="M0 0 C13.01155235 11.09117264 19.05393279 24.36248939 20.40625 41.23828125 C20.81607329 55.40279866 16.32545707 66.58005687 8.21875 77.8984375 C7.6 78.7853125 6.98125 79.6721875 6.34375 80.5859375 C-5.35199018 93.31365475 -23.07384367 99.09391815 -39.88671875 99.89453125 C-58.30476884 99.91300472 -74.9919254 94.19029496 -88.59375 81.5859375 C-99.92326098 69.372172 -103.9145547 55.21159969 -103.78125 38.8984375 C-102.94425465 27.25523428 -98.24079883 16.76976796 -90.78125 7.8984375 C-90.183125 7.09277344 -89.585 6.28710938 -88.96875 5.45703125 C-81.7723344 -2.96020485 -71.16487691 -7.91278417 -60.78125 -11.1015625 C-59.99878906 -11.34648438 -59.21632813 -11.59140625 -58.41015625 -11.84375 C-38.45734714 -16.89246773 -16.28520472 -12.30539346 0 0 Z M-72.53125 18.7109375 C-80.14612774 28.1533859 -82.0133089 38.00300588 -81.05615234 49.85351562 C-79.97893331 57.86664763 -75.92642684 65.63114307 -69.78125 70.8984375 C-59.74978396 78.47138682 -48.20586133 81.06021934 -35.78125 79.8984375 C-24.73194779 78.21152113 -15.39059036 73.88745006 -8.25 65.11328125 C-2.28723268 56.12155499 -0.56910645 45.70508677 -2.20703125 35.15625 C-4.41004812 25.61434873 -8.9343494 18.46593621 -17.09375 12.9609375 C-34.49074065 2.99293204 -58.00143857 3.66220424 -72.53125 18.7109375 Z " fill="#010101" transform="translate(551.78125,60.1015625)"/>
<path d="M0 0 C0.66540802 0.00054382 1.33081604 0.00108765 2.01638794 0.00164795 C19.10013279 0.06583105 34.17093902 3.71046951 49.5 11.375 C49.11722634 12.69136796 48.71770403 14.00286266 48.3125 15.3125 C47.98185547 16.40884766 47.98185547 16.40884766 47.64453125 17.52734375 C45.97370198 21.68445822 43.7310604 25.49615951 41.5 29.375 C40.83581055 29.17342285 40.17162109 28.9718457 39.48730469 28.76416016 C36.4104537 27.83512832 33.33029791 26.91753555 30.25 26 C29.20585937 25.68289062 28.16171875 25.36578125 27.0859375 25.0390625 C11.38153888 20.38590735 -5.40943127 17.58046412 -21.125 23.8125 C-23.73919779 25.31104032 -23.73919779 25.31104032 -25.5 28.375 C-25.64768913 30.89249828 -25.64768913 30.89249828 -24.5 33.375 C-19.27908393 37.84014286 -13.699539 38.64152689 -7.0625 39.8125 C-4.8200512 40.23690292 -2.57786913 40.66271726 -0.3359375 41.08984375 C0.80004883 41.30237793 1.93603516 41.51491211 3.10644531 41.73388672 C40.39573379 48.77861129 40.39573379 48.77861129 51.8125 60.8125 C57.05568186 68.77436875 57.53393957 75.88065111 56.5 85.375 C54.06597206 93.88282914 48.54630581 99.25190686 41.18359375 103.80859375 C23.67854621 113.27761625 0.59041453 113.49114886 -18.5 109.375 C-20.23056641 109.00761719 -20.23056641 109.00761719 -21.99609375 108.6328125 C-32.42340802 106.13908443 -41.8347141 101.93639495 -51.5 97.375 C-49.95673777 92.45547436 -48.4369511 87.78115998 -45.8125 83.3125 C-45.15701172 82.18134766 -45.15701172 82.18134766 -44.48828125 81.02734375 C-44.16214844 80.48207031 -43.83601563 79.93679687 -43.5 79.375 C-39.81496753 79.97275036 -36.89702995 81.02794195 -33.5625 82.6875 C-16.13719393 90.82245344 5.42134152 93.5846227 24.125 88.32421875 C27.51407659 86.96970294 30.59398372 85.52811163 32.875 82.625 C33.89768758 78.94332472 33.77736166 77.01548074 32.5 73.375 C24.42449541 66.79884414 12.14664335 66.10211992 2.25 64.375 C-36.17472178 57.6164335 -36.17472178 57.6164335 -46.40625 43.20703125 C-49.89595681 37.36177234 -49.0785614 29.92754421 -48.5 23.375 C-46.3933652 16.46445033 -41.43942851 11.30521589 -35.5 7.375 C-23.80123636 1.36623448 -13.02572898 -0.01791822 0 0 Z " fill="#010101" transform="translate(376.5,47.625)"/>
<path d="M0 0 C31.35 0 62.7 0 95 0 C95 6.27 95 12.54 95 19 C69.92 19 44.84 19 19 19 C19 26.59 19 34.18 19 42 C38.47 42 57.94 42 78 42 C78 47.94 78 53.88 78 60 C77 61 77 61 74.67784119 61.12025452 C73.64969803 61.11803391 72.62155487 61.11581329 71.56225586 61.11352539 C70.40112778 61.11344986 69.23999969 61.11337433 68.04368591 61.11329651 C66.14840904 61.10555458 66.14840904 61.10555458 64.21484375 61.09765625 C62.92888809 61.0962413 61.64293243 61.09482635 60.31800842 61.09336853 C56.89356557 61.08954418 53.46916491 61.07971462 50.04473877 61.06866455 C46.55261811 61.05844864 43.06049066 61.05387053 39.56835938 61.04882812 C32.71222047 61.03809226 25.8561166 61.02049614 19 61 C19 69.25 19 77.5 19 86 C45.07 86 71.14 86 98 86 C98 92.6 98 99.2 98 106 C65.66 106 33.32 106 0 106 C0 71.02 0 36.04 0 0 Z " fill="#010101" transform="translate(712,189)"/>
<path d="M0 0 C31.35 0 62.7 0 95 0 C95 6.27 95 12.54 95 19 C69.92 19 44.84 19 19 19 C19 26.26 19 33.52 19 41 C38.47 41 57.94 41 78 41 C78 47.27 78 53.54 78 60 C58.53 60 39.06 60 19 60 C19 68.58 19 77.16 19 86 C45.4 86 71.8 86 99 86 C99 92.27 99 98.54 99 105 C66.33 105 33.66 105 0 105 C0 70.35 0 35.7 0 0 Z " fill="#000000" transform="translate(999,51)"/>
<path d="M0 0 C-1.48635116 4.21654356 -3.61249159 7.62478605 -6.125 11.3125 C-7.21167969 12.91544922 -7.21167969 12.91544922 -8.3203125 14.55078125 C-8.87460937 15.35902344 -9.42890625 16.16726562 -10 17 C-14.38065763 16.39633396 -17.57848258 14.73965232 -21.4375 12.625 C-35.17456121 5.47721646 -50.3613343 3.8264072 -65.28515625 8.1015625 C-74.39391785 11.11597281 -80.55400117 15.87267642 -85.35546875 24.41015625 C-90.28854218 35.07770492 -89.99763749 44.87547046 -86.25 55.94921875 C-82.78805339 64.3985322 -77.30168397 69.27741949 -69 73 C-62.2653693 75.50113571 -56.10405209 76.51897667 -48.9375 76.4375 C-48.0400708 76.43427734 -47.1426416 76.43105469 -46.21801758 76.42773438 C-37.36708997 76.24641736 -29.51466912 74.36929923 -21 72 C-21 61.44 -21 50.88 -21 40 C-13.41 40 -5.82 40 2 40 C2 54.19 2 68.38 2 83 C-16.45652174 92.22826087 -16.45652174 92.22826087 -23.0625 93.9375 C-23.74248047 94.13150391 -24.42246094 94.32550781 -25.12304688 94.52539062 C-44.0417544 99.76748696 -65.2758357 98.62232613 -82.875 89.8125 C-96.10426303 82.17075179 -105.33904728 71.32309541 -110.05078125 56.75 C-113.89872641 41.57705986 -112.36404956 26.34846838 -104.8125 12.5625 C-95.77223899 -1.53191537 -82.09238106 -9.90754102 -66 -14 C-42.06981318 -19.12542352 -20.25505565 -12.40815432 0 0 Z " fill="#010101" transform="translate(435,201)"/>
<path d="M0 0 C0.91644287 0.00523682 1.83288574 0.01047363 2.77709961 0.01586914 C4.26113281 0.02070313 4.26113281 0.02070313 5.77514648 0.02563477 C6.81606445 0.03401367 7.85698242 0.04239258 8.92944336 0.05102539 C10.49662109 0.05779297 10.49662109 0.05779297 12.09545898 0.06469727 C14.68600996 0.07652627 17.27644895 0.0930085 19.86694336 0.11352539 C31.42944336 23.23852539 31.42944336 23.23852539 32.37939453 25.140625 C34.38007872 29.14529873 36.38590493 33.14734029 38.39653015 37.14703369 C45.07030551 50.42599971 51.7022876 63.71606313 58.06079102 77.14990234 C61.32653409 84.0377077 64.71379081 90.85755006 68.2277832 97.62231445 C70.86694336 102.7884857 70.86694336 102.7884857 70.86694336 106.11352539 C67.2842256 106.28792129 63.70259734 106.39440197 60.11694336 106.48852539 C59.10116211 106.53879883 58.08538086 106.58907227 57.03881836 106.64086914 C54.20625707 106.69677496 51.64854595 106.65544057 48.86694336 106.11352539 C46.42944336 103.60571289 46.42944336 103.60571289 44.86694336 100.11352539 C44.15843983 98.77231018 43.44464249 97.43388166 42.72631836 96.09790039 C42.01901432 94.6885316 41.31593238 93.27703653 40.61694336 91.86352539 C40.25342773 91.14422852 39.88991211 90.42493164 39.51538086 89.68383789 C36.86694336 84.36704983 36.86694336 84.36704983 36.86694336 82.11352539 C18.38694336 82.11352539 -0.09305664 82.11352539 -19.13305664 82.11352539 C-19.79305664 84.09352539 -20.45305664 86.07352539 -21.13305664 88.11352539 C-21.80483913 89.55495653 -22.51274862 90.98031169 -23.26196289 92.38305664 C-23.65706055 93.12620117 -24.0521582 93.8693457 -24.45922852 94.63500977 C-24.8672168 95.39104492 -25.27520508 96.14708008 -25.69555664 96.92602539 C-26.10741211 97.70139648 -26.51926758 98.47676758 -26.94360352 99.27563477 C-29.98532403 104.96579278 -29.98532403 104.96579278 -31.13305664 106.11352539 C-32.76778546 106.20052881 -34.40619719 106.22053602 -36.04321289 106.21118164 C-37.03256836 106.20795898 -38.02192383 106.20473633 -39.04125977 106.20141602 C-40.08217773 106.19303711 -41.1230957 106.1846582 -42.19555664 106.17602539 C-43.2403418 106.17151367 -44.28512695 106.16700195 -45.36157227 106.16235352 C-47.95212324 106.15052452 -50.54256223 106.13404228 -53.13305664 106.11352539 C-52.50533848 101.74612254 -50.91854451 98.35262681 -48.92211914 94.43383789 C-48.4365152 93.4730986 -48.4365152 93.4730986 -47.94110107 92.49295044 C-47.24646393 91.11978195 -46.54919738 89.74794098 -45.84954834 88.37731934 C-43.99917105 84.75147797 -42.16849825 81.11570532 -40.33618164 77.48071289 C-39.97080292 76.75698486 -39.60542419 76.03325684 -39.22897339 75.28759766 C-36.2380473 69.35213213 -33.34737999 63.3730197 -30.50805664 57.36352539 C-26.1490851 48.15323984 -21.61704325 39.03595831 -17.03768921 29.93405151 C-13.02236197 21.95030155 -9.08539599 13.94127769 -5.35302734 5.82104492 C-2.73697516 0.1456671 -2.73697516 0.1456671 0 0 Z M8.86694336 24.11352539 C4.261191 33.20924303 -0.24036355 42.35032718 -4.63305664 51.55102539 C-5.0782666 52.48068115 -5.52347656 53.41033691 -5.98217773 54.36816406 C-6.39290527 55.23159424 -6.80363281 56.09502441 -7.22680664 56.98461914 C-7.77884766 58.14368774 -7.77884766 58.14368774 -8.34204102 59.32617188 C-9.20050679 60.94017215 -9.20050679 60.94017215 -9.13305664 62.11352539 C2.74694336 62.11352539 14.62694336 62.11352539 26.86694336 62.11352539 C25.28970444 57.38180863 23.51896297 53.00863942 21.39038086 48.52758789 C21.06027008 47.82580414 20.7301593 47.12402039 20.39004517 46.40097046 C19.34381953 44.17865849 18.29296218 41.95857385 17.24194336 39.73852539 C16.52809359 38.22434769 15.81454877 36.71002618 15.10131836 35.19555664 C13.36004973 31.49987343 11.61462619 27.80617939 9.86694336 24.11352539 C9.53694336 24.11352539 9.20694336 24.11352539 8.86694336 24.11352539 Z " fill="#010101" transform="translate(993.133056640625,188.886474609375)"/>
<path d="M0 0 C0.96083496 0.00491455 1.92166992 0.0098291 2.91162109 0.01489258 C20.36704179 0.30059067 34.5008479 6.23811032 49.25 15.3125 C48.67000976 19.57279191 46.12612107 22.66411535 43.6875 26.0625 C43.26275391 26.66449219 42.83800781 27.26648438 42.40039062 27.88671875 C41.35564478 29.36579714 40.30353984 30.83967259 39.25 32.3125 C35.33701542 31.60104826 32.18077833 29.78757143 28.6875 27.9375 C15.40609306 21.21033127 0.39203128 18.52870055 -14.3125 22.4375 C-24.38419611 26.22754592 -31.66824373 31.72133705 -36.80859375 41.28125 C-40.81832633 50.6436878 -40.49857654 61.05310167 -36.93359375 70.46875 C-32.24925201 80.66062325 -25.02917734 86.11407474 -14.63671875 90.12890625 C0.24542753 94.26123036 18.14634018 91.47482603 31.5 84.125 C32.33015625 83.61582031 33.1603125 83.10664063 34.015625 82.58203125 C36.14869323 81.37006066 37.88069393 80.84823679 40.25 80.3125 C41.92228535 82.767176 43.5879686 85.22589674 45.25 87.6875 C45.72695313 88.38617188 46.20390625 89.08484375 46.6953125 89.8046875 C47.14648438 90.475 47.59765625 91.1453125 48.0625 91.8359375 C48.48144531 92.45388184 48.90039062 93.07182617 49.33203125 93.70849609 C50.25 95.3125 50.25 95.3125 50.25 97.3125 C42.02018165 103.50536995 33.08093744 107.35238909 23.25 110.3125 C22.49589844 110.54710937 21.74179687 110.78171875 20.96484375 111.0234375 C1.30452528 116.25103663 -20.68690096 113.11234507 -38.16015625 102.984375 C-49.26644044 95.81470738 -58.17308185 84.55647815 -61.33203125 71.5390625 C-61.46996094 70.80429688 -61.60789062 70.06953125 -61.75 69.3125 C-61.87761719 68.63960938 -62.00523437 67.96671875 -62.13671875 67.2734375 C-62.44222046 65.28172507 -62.6228826 63.32326612 -62.75 61.3125 C-62.80285156 60.57773438 -62.85570312 59.84296875 -62.91015625 59.0859375 C-63.45117255 44.64315464 -58.87115566 30.97716644 -49.5 20 C-36.17349666 6.14132349 -18.98298075 -0.11589326 0 0 Z " fill="#010101" transform="translate(650.75,46.6875)"/>
<path d="M0 0 C34.98 0 69.96 0 106 0 C106 5.94 106 11.88 106 18 C105.505 18.495 105.505 18.495 105 19 C91.47 19 77.94 19 64 19 C64 47.38 64 75.76 64 105 C56.41 105 48.82 105 41 105 C41 76.62 41 48.24 41 19 C27.47 19 13.94 19 0 19 C0 12.73 0 6.46 0 0 Z " fill="#010101" transform="translate(878,51)"/>
<path d="M0 0 C6.6 0 13.2 0 20 0 C20 28.38 20 56.76 20 86 C42.33387429 85.96038631 42.33387429 85.96038631 64.66772461 85.90991211 C68.97961426 85.90539551 68.97961426 85.90539551 70.99586487 85.90455627 C72.40915745 85.90301703 73.8224487 85.89949249 75.23573303 85.89442444 C77.37194107 85.88714452 79.5080686 85.88609266 81.64428711 85.88647461 C82.85007919 85.884254 84.05587128 85.88203339 85.29820251 85.87974548 C88 86 88 86 89 87 C89.0983721 88.33043625 89.13078592 89.66593344 89.1328125 91 C89.13410156 91.804375 89.13539062 92.60875 89.13671875 93.4375 C89.13285156 94.283125 89.12898438 95.12875 89.125 96 C89.12886719 96.845625 89.13273437 97.69125 89.13671875 98.5625 C89.13542969 99.366875 89.13414063 100.17125 89.1328125 101 C89.13168457 101.7425 89.13055664 102.485 89.12939453 103.25 C89 105 89 105 88 106 C85.29699701 106.10046803 82.61951654 106.13616452 79.91601562 106.12939453 C79.06891525 106.13114685 78.22181488 106.13289917 77.3490448 106.13470459 C74.53475934 106.13912409 71.72053616 106.13618477 68.90625 106.1328125 C66.95951322 106.13348551 65.01277653 106.13445551 63.06604004 106.13571167 C58.98037925 106.13718878 54.89474029 106.13503368 50.80908203 106.13037109 C45.55953484 106.1246738 40.31003878 106.12795274 35.06049347 106.13394356 C31.03891613 106.13754883 27.01735101 106.13641074 22.99577332 106.13381577 C21.05958551 106.1331464 19.12339661 106.13397525 17.18721008 106.13629532 C14.48610476 106.13882129 11.78508341 106.13498205 9.08398438 106.12939453 C7.87146248 106.13243088 7.87146248 106.13243088 6.63444519 106.13552856 C1.11426248 106.11426248 1.11426248 106.11426248 0 105 C-0.09535213 103.63391674 -0.1218867 102.26294545 -0.12025452 100.89353943 C-0.12162918 100.00867859 -0.12300385 99.12381775 -0.12442017 98.21214294 C-0.12082489 97.23391068 -0.11722961 96.25567841 -0.11352539 95.24780273 C-0.11367142 94.2235318 -0.11381744 93.19926086 -0.1139679 92.14395142 C-0.11326828 88.74047771 -0.10547363 85.33705796 -0.09765625 81.93359375 C-0.09579224 79.58089732 -0.09436826 77.2282005 -0.09336853 74.87550354 C-0.08954199 68.66943295 -0.07971055 62.4633856 -0.06866455 56.25732422 C-0.05845334 49.93001622 -0.05387154 43.60270448 -0.04882812 37.27539062 C-0.0380884 24.85024854 -0.02049051 12.42512983 0 0 Z " fill="#020202" transform="translate(1078,189)"/>
<path d="M0 0 C7.26 0 14.52 0 22 0 C22 34.65 22 69.3 22 105 C14.74 105 7.48 105 0 105 C0 70.35 0 35.7 0 0 Z " fill="#000000" transform="translate(719,51)"/>
<path d="M0 0 C53.79 0 107.58 0 163 0 C163 4.62 163 9.24 163 14 C109.21 14 55.42 14 0 14 C0 9.38 0 4.76 0 0 Z " fill="#F6F6F6" transform="translate(45,166)"/>
</svg>
